<?xml version="1.0" encoding="UTF-8" standalone="no"?>
<!-- Created with Inkscape (http://www.inkscape.org/) -->

<svg
   xmlns:dc="http://purl.org/dc/elements/1.1/"
   xmlns:cc="http://creativecommons.org/ns#"
   xmlns:rdf="http://www.w3.org/1999/02/22-rdf-syntax-ns#"
   xmlns:svg="http://www.w3.org/2000/svg"
   xmlns="http://www.w3.org/2000/svg"
   xmlns:sodipodi="http://sodipodi.sourceforge.net/DTD/sodipodi-0.dtd"
   xmlns:inkscape="http://www.inkscape.org/namespaces/inkscape"
   width="24"
   height="24"
   id="svg3465"
   version="1.1"
   inkscape:version="0.48.3.1 r9886"
   sodipodi:docname="diodon-panel.svg">
  <defs
     id="defs3467" />
  <sodipodi:namedview
     id="base"
     pagecolor="#ffffff"
     bordercolor="#666666"
     borderopacity="1.0"
     inkscape:pageopacity="0.0"
     inkscape:pageshadow="2"
     inkscape:zoom="25.774027"
     inkscape:cx="16.14972"
     inkscape:cy="11.394423"
     inkscape:document-units="px"
     inkscape:current-layer="layer1"
     showgrid="true"
     inkscape:window-width="1600"
     inkscape:window-height="876"
     inkscape:window-x="0"
     inkscape:window-y="24"
     inkscape:window-maximized="1">
    <inkscape:grid
       type="xygrid"
       id="grid3491"
       empspacing="5"
       visible="true"
       enabled="true"
       snapvisiblegridlinesonly="true" />
  </sodipodi:namedview>
  <metadata
     id="metadata3470">
    <rdf:RDF>
      <cc:Work
         rdf:about="">
        <dc:format>image/svg+xml</dc:format>
        <dc:type
           rdf:resource="http://purl.org/dc/dcmitype/StillImage" />
        <dc:title />
      </cc:Work>
    </rdf:RDF>
  </metadata>
  <g
     inkscape:label="Layer 1"
     inkscape:groupmode="layer"
     id="layer1"
     transform="translate(0,-1028.3622)">
    <path
       inkscape:connector-curvature="0"
       d="m 7.5265845,1049.2883 c -1.5092113,1.4782 -3.8878681,1.4021 -5.3771301,-0.054 -1.48339829,-1.4614 -1.56142624,-3.7985 -0.056614,-5.2809 L 14.51002,1031.7581 c 1.962707,-1.9214 5.051234,-1.8244 6.991942,0.076 1.934254,1.9073 2.032816,4.9403 0.07714,6.8677 l -10.347699,10.1626 c -0.228508,0.2249 -0.598988,0.2249 -0.826616,0 -0.228802,-0.2245 -0.229682,-0.588 -8.92e-4,-0.8125 l 10.346817,-10.1635 c 1.490144,-1.4652 1.430011,-3.75 -0.07656,-5.2417 -1.516838,-1.4788 -3.843868,-1.5373 -5.33665,-0.074 l -12.41718,12.1953 c -1.0363543,1.0221 -0.9976342,2.6095 0.056614,3.6554 1.0665691,1.0372 2.6813805,1.0735 3.7230147,0.055 l 10.3468173,-10.1619 c 0.537978,-0.5277 0.518324,-1.3804 -0.08418,-1.9842 -0.613658,-0.5904 -1.481636,-0.6099 -2.019613,-0.08 l -9.3122244,9.1454 c -0.2285081,0.2257 -0.5989906,0.2248 -0.8274985,0 -0.2285092,-0.2244 -0.2293892,-0.5886 -8.886e-4,-0.8132 l 9.3139825,-9.145 c 1.029608,-1.0084 2.660554,-0.9102 3.673734,0.082 1.011713,0.9966 1.110274,2.5991 0.08506,3.6099 l -10.3485745,10.1618 z"
       style="fill:#3c3c3c;fill-opacity:1;fill-rule:nonzero;stroke:none"
       id="path108" />
  </g>
</svg>
