<?xml version="1.0" encoding="UTF-8" standalone="no"?>
<!-- Created with Inkscape (http://www.inkscape.org/) -->

<svg
   xmlns:dc="http://purl.org/dc/elements/1.1/"
   xmlns:cc="http://creativecommons.org/ns#"
   xmlns:rdf="http://www.w3.org/1999/02/22-rdf-syntax-ns#"
   xmlns:svg="http://www.w3.org/2000/svg"
   xmlns="http://www.w3.org/2000/svg"
   xmlns:sodipodi="http://sodipodi.sourceforge.net/DTD/sodipodi-0.dtd"
   xmlns:inkscape="http://www.inkscape.org/namespaces/inkscape"
   width="24"
   height="24"
   id="svg3465"
   version="1.1"
   inkscape:version="0.48.3.1 r9886"
   sodipodi:docname="diodon-panel.svg">
  <defs
     id="defs3467" />
  <sodipodi:namedview
     id="base"
     pagecolor="#ffffff"
     bordercolor="#666666"
     borderopacity="1.0"
     inkscape:pageopacity="0.0"
     inkscape:pageshadow="2"
     inkscape:zoom="33.136364"
     inkscape:cx="5.6886145"
     inkscape:cy="12.207133"
     inkscape:document-units="px"
     inkscape:current-layer="layer1"
     showgrid="true"
     inkscape:window-width="1600"
     inkscape:window-height="876"
     inkscape:window-x="0"
     inkscape:window-y="24"
     inkscape:window-maximized="1">
    <inkscape:grid
       type="xygrid"
       id="grid3491"
       empspacing="5"
       visible="true"
       enabled="true"
       snapvisiblegridlinesonly="true" />
  </sodipodi:namedview>
  <metadata
     id="metadata3470">
    <rdf:RDF>
      <cc:Work
         rdf:about="">
        <dc:format>image/svg+xml</dc:format>
        <dc:type
           rdf:resource="http://purl.org/dc/dcmitype/StillImage" />
        <dc:title />
      </cc:Work>
    </rdf:RDF>
  </metadata>
  <g
     inkscape:label="Layer 1"
     inkscape:groupmode="layer"
     id="layer1"
     transform="translate(0,-1028.3622)">
    <path
       inkscape:connector-curvature="0"
       d="m 7.9332586,1048.3957 c -1.3720103,1.3304 -3.5344255,1.2619 -4.8883001,-0.049 -1.3485439,-1.3153 -1.4194784,-3.4187 -0.051467,-4.7529 l 11.2883445,-10.9756 c 1.784279,-1.7293 4.592031,-1.642 6.356311,0.068 1.758413,1.7166 1.848015,4.4464 0.07013,6.1811 l -9.406999,9.1465 c -0.207734,0.2024 -0.544534,0.2024 -0.751469,0 -0.208002,-0.2021 -0.208802,-0.5292 -8.11e-4,-0.7313 l 9.406197,-9.1473 c 1.354677,-1.3187 1.30001,-3.3751 -0.0696,-4.7176 -1.378943,-1.331 -3.494425,-1.3836 -4.8515,-0.067 l -11.288345,10.976 c -0.9421403,0.9199 -0.9069402,2.3486 0.051467,3.2899 0.9696083,0.9335 2.4376186,0.9662 3.3845588,0.05 l 9.4061982,-9.1459 c 0.48907,-0.475 0.471203,-1.2424 -0.07653,-1.7858 -0.557871,-0.5314 -1.346942,-0.549 -1.836012,-0.072 l -8.465659,8.231 c -0.2077347,0.2031 -0.5445369,0.2023 -0.7522714,0 -0.2077356,-0.202 -0.2085356,-0.5298 -8.078e-4,-0.7319 l 8.4672572,-8.2307 c 0.936007,-0.9076 2.418685,-0.8192 3.339758,0.074 0.919739,0.897 1.00934,2.3392 0.07733,3.249 L 7.9332413,1048.4 z"
       style="fill:#3c3c3c;fill-opacity:1;fill-rule:nonzero;stroke:none"
       id="path108" />
  </g>
</svg>
