<?xml version="1.0" encoding="UTF-8" standalone="no"?>
<!-- Created with Inkscape (http://www.inkscape.org/) -->

<svg
   xmlns:dc="http://purl.org/dc/elements/1.1/"
   xmlns:cc="http://creativecommons.org/ns#"
   xmlns:rdf="http://www.w3.org/1999/02/22-rdf-syntax-ns#"
   xmlns:svg="http://www.w3.org/2000/svg"
   xmlns="http://www.w3.org/2000/svg"
   xmlns:sodipodi="http://sodipodi.sourceforge.net/DTD/sodipodi-0.dtd"
   xmlns:inkscape="http://www.inkscape.org/namespaces/inkscape"
   width="16"
   height="16"
   id="svg3465"
   version="1.1"
   inkscape:version="0.48.3.1 r9886"
   sodipodi:docname="diodon-panel.svg">
  <defs
     id="defs3467" />
  <sodipodi:namedview
     id="base"
     pagecolor="#ffffff"
     bordercolor="#666666"
     borderopacity="1.0"
     inkscape:pageopacity="0.0"
     inkscape:pageshadow="2"
     inkscape:zoom="33.136364"
     inkscape:cx="5.6886145"
     inkscape:cy="11"
     inkscape:document-units="px"
     inkscape:current-layer="layer1"
     showgrid="true"
     inkscape:window-width="1600"
     inkscape:window-height="876"
     inkscape:window-x="0"
     inkscape:window-y="24"
     inkscape:window-maximized="1">
    <inkscape:grid
       type="xygrid"
       id="grid3491"
       empspacing="5"
       visible="true"
       enabled="true"
       snapvisiblegridlinesonly="true" />
  </sodipodi:namedview>
  <metadata
     id="metadata3470">
    <rdf:RDF>
      <cc:Work
         rdf:about="">
        <dc:format>image/svg+xml</dc:format>
        <dc:type
           rdf:resource="http://purl.org/dc/dcmitype/StillImage" />
        <dc:title />
      </cc:Work>
    </rdf:RDF>
  </metadata>
  <g
     inkscape:label="Layer 1"
     inkscape:groupmode="layer"
     id="layer1"
     transform="translate(0,-1036.3622)">
    <path
       inkscape:connector-curvature="0"
       d="m 5.5599552,1049.2716 c -0.8232062,0.813 -2.1206553,0.7711 -2.9329801,-0.03 -0.8091263,-0.8038 -0.851687,-2.0892 -0.03088,-2.9046 l 6.7730063,-6.7073 c 1.0705676,-1.0568 2.7552186,-1.0034 3.8137866,0.042 1.055048,1.049 1.108809,2.7172 0.04208,3.7774 l -5.6441993,5.5895 c -0.1246406,0.1236 -0.3267207,0.1236 -0.4508814,0 -0.1248014,-0.1235 -0.1252814,-0.3234 -4.867e-4,-0.4469 l 5.6437184,-5.59 c 0.812806,-0.8059 0.780006,-2.0626 -0.04176,-2.883 -0.827366,-0.8134 -2.096655,-0.8455 -2.9109003,-0.041 l -6.7730067,6.7068 c -0.5652842,0.5622 -0.5441641,1.4353 0.03088,2.0105 0.581765,0.5705 1.4625712,0.5905 2.0307353,0.031 l 5.6437187,-5.5891 c 0.293442,-0.2903 0.282722,-0.7593 -0.04592,-1.0914 -0.334723,-0.3247 -0.8081653,-0.3355 -1.1016073,-0.044 l -5.0793955,5.0301 c -0.1246408,0.1241 -0.3267221,0.1236 -0.4513628,0 -0.1246414,-0.1235 -0.1251214,-0.3238 -4.847e-4,-0.4473 l 5.0803544,-5.0299 c 0.561604,-0.5546 1.4512109,-0.5006 2.0038549,0.045 0.551843,0.5481 0.605604,1.4295 0.0464,1.9854 l -5.6446784,5.5891 z"
       style="fill:#3c3c3c;fill-opacity:1;fill-rule:nonzero;stroke:none"
       id="path108" />
  </g>
</svg>
