<?xml version="1.0" encoding="UTF-8" standalone="no"?>
<!-- Created with Inkscape (http://www.inkscape.org/) -->

<svg
   xmlns:dc="http://purl.org/dc/elements/1.1/"
   xmlns:cc="http://creativecommons.org/ns#"
   xmlns:rdf="http://www.w3.org/1999/02/22-rdf-syntax-ns#"
   xmlns:svg="http://www.w3.org/2000/svg"
   xmlns="http://www.w3.org/2000/svg"
   xmlns:sodipodi="http://sodipodi.sourceforge.net/DTD/sodipodi-0.dtd"
   xmlns:inkscape="http://www.inkscape.org/namespaces/inkscape"
   width="24"
   height="24"
   id="svg3465"
   version="1.1"
   inkscape:version="0.48.3.1 r9886"
   sodipodi:docname="diodon-panel.svg">
  <defs
     id="defs3467" />
  <sodipodi:namedview
     id="base"
     pagecolor="#ffffff"
     bordercolor="#666666"
     borderopacity="1.0"
     inkscape:pageopacity="0.0"
     inkscape:pageshadow="2"
     inkscape:zoom="33.136364"
     inkscape:cx="5.6886145"
     inkscape:cy="12.574913"
     inkscape:document-units="px"
     inkscape:current-layer="layer1"
     showgrid="true"
     inkscape:window-width="1600"
     inkscape:window-height="876"
     inkscape:window-x="0"
     inkscape:window-y="24"
     inkscape:window-maximized="1">
    <inkscape:grid
       type="xygrid"
       id="grid3491"
       empspacing="5"
       visible="true"
       enabled="true"
       snapvisiblegridlinesonly="true" />
  </sodipodi:namedview>
  <metadata
     id="metadata3470">
    <rdf:RDF>
      <cc:Work
         rdf:about="">
        <dc:format>image/svg+xml</dc:format>
        <dc:type
           rdf:resource="http://purl.org/dc/dcmitype/StillImage" />
        <dc:title />
      </cc:Work>
    </rdf:RDF>
  </metadata>
  <g
     inkscape:label="Layer 1"
     inkscape:groupmode="layer"
     id="layer1"
     transform="translate(0,-1028.3622)">
    <path
       inkscape:connector-curvature="0"
       d="m 7.9332586,1048.3958 c -1.3720103,1.3303 -3.5344255,1.2618 -4.8883002,-0.05 -1.3485437,-1.3152 -1.4194782,-3.4186 -0.051467,-4.7527 l 11.2883446,-10.9751 c 1.78428,-1.7293 4.592031,-1.642 6.356311,0.069 1.758413,1.7163 1.848014,4.4462 0.07013,6.1808 l -9.406999,9.1461 c -0.207734,0.2024 -0.544534,0.2024 -0.751469,0 -0.208002,-0.2022 -0.208802,-0.5291 -8.11e-4,-0.7313 l 9.406197,-9.1469 c 1.354677,-1.3188 1.30001,-3.3751 -0.0696,-4.7174 -1.378942,-1.3311 -3.494425,-1.3836 -4.8515,-0.066 l -11.2883451,10.9743 c -0.9421403,0.9198 -0.9069402,2.3486 0.051467,3.2897 0.9696082,0.9336 2.4376186,0.9662 3.3845588,0.051 l 9.4061983,-9.1455 c 0.48907,-0.475 0.471203,-1.2424 -0.07653,-1.7856 -0.557871,-0.5314 -1.346942,-0.549 -1.836012,-0.072 l -8.4656592,8.2306 c -0.2077345,0.2031 -0.5445368,0.2024 -0.7522713,0 -0.2077357,-0.202 -0.2085357,-0.5298 -8.078e-4,-0.7319 l 8.4672573,-8.2303 c 0.936007,-0.9076 2.418685,-0.8193 3.339759,0.073 0.919738,0.8969 1.00934,2.339 0.07733,3.2488 l -9.4077977,9.1455 z"
       style="fill:#dfdbd2;fill-opacity:1;fill-rule:nonzero;stroke:none"
       id="path108" />
  </g>
</svg>
