<?xml version="1.0" encoding="UTF-8" standalone="no"?>
<!-- Created with Inkscape (http://www.inkscape.org/) -->

<svg
   xmlns:dc="http://purl.org/dc/elements/1.1/"
   xmlns:cc="http://creativecommons.org/ns#"
   xmlns:rdf="http://www.w3.org/1999/02/22-rdf-syntax-ns#"
   xmlns:svg="http://www.w3.org/2000/svg"
   xmlns="http://www.w3.org/2000/svg"
   xmlns:sodipodi="http://sodipodi.sourceforge.net/DTD/sodipodi-0.dtd"
   xmlns:inkscape="http://www.inkscape.org/namespaces/inkscape"
   width="24"
   height="24"
   id="svg3465"
   version="1.1"
   inkscape:version="0.48.3.1 r9886"
   sodipodi:docname="diodon-panel.svg">
  <defs
     id="defs3467" />
  <sodipodi:namedview
     id="base"
     pagecolor="#ffffff"
     bordercolor="#666666"
     borderopacity="1.0"
     inkscape:pageopacity="0.0"
     inkscape:pageshadow="2"
     inkscape:zoom="33.136364"
     inkscape:cx="5.6886145"
     inkscape:cy="14.989179"
     inkscape:document-units="px"
     inkscape:current-layer="layer1"
     showgrid="true"
     inkscape:window-width="1600"
     inkscape:window-height="876"
     inkscape:window-x="0"
     inkscape:window-y="24"
     inkscape:window-maximized="1">
    <inkscape:grid
       type="xygrid"
       id="grid3491"
       empspacing="5"
       visible="true"
       enabled="true"
       snapvisiblegridlinesonly="true" />
  </sodipodi:namedview>
  <metadata
     id="metadata3470">
    <rdf:RDF>
      <cc:Work
         rdf:about="">
        <dc:format>image/svg+xml</dc:format>
        <dc:type
           rdf:resource="http://purl.org/dc/dcmitype/StillImage" />
        <dc:title />
      </cc:Work>
    </rdf:RDF>
  </metadata>
  <g
     inkscape:label="Layer 1"
     inkscape:groupmode="layer"
     id="layer1"
     transform="translate(0,-1028.3622)">
    <path
       inkscape:connector-curvature="0"
       d="m 7.5265846,1049.2887 c -1.5092113,1.478 -3.8878681,1.4019 -5.3771303,-0.056 -1.48339808,-1.4613 -1.56142608,-3.7984 -0.056614,-5.2807 L 14.51002,1031.7581 c 1.962708,-1.9214 5.051234,-1.8244 6.991942,0.077 1.934255,1.9069 2.032816,4.9401 0.07714,6.8674 l -10.347699,10.1621 c -0.228507,0.2249 -0.598987,0.2249 -0.826616,0 -0.228802,-0.2246 -0.229682,-0.5878 -8.92e-4,-0.8125 l 10.346817,-10.163 c 1.490145,-1.4653 1.430011,-3.7501 -0.07656,-5.2415 -1.516836,-1.4789 -3.843868,-1.5373 -5.33665,-0.073 L 2.9203219,1044.768 c -1.0363543,1.022 -0.9976342,2.6095 0.056614,3.6552 1.0665691,1.0373 2.6813806,1.0735 3.7230148,0.057 l 10.3468183,-10.1614 c 0.537977,-0.5278 0.518323,-1.3804 -0.08418,-1.984 -0.613658,-0.5904 -1.481636,-0.61 -2.019613,-0.08 l -9.3122255,9.1449 c -0.228508,0.2257 -0.5989905,0.2249 -0.8274985,0 -0.2285092,-0.2244 -0.2293892,-0.5886 -8.885e-4,-0.8132 l 9.3139825,-9.1446 c 1.029608,-1.0084 2.660554,-0.9103 3.673735,0.081 1.011712,0.9966 1.110274,2.5989 0.08506,3.6098 l -10.348577,10.1605 z"
       style="fill:#dfdbd2;fill-opacity:1;fill-rule:nonzero;stroke:none"
       id="path108" />
  </g>
</svg>
