<?xml version="1.0" encoding="UTF-8" standalone="no"?>
<!-- Created with Inkscape (http://www.inkscape.org/) -->

<svg
   xmlns:dc="http://purl.org/dc/elements/1.1/"
   xmlns:cc="http://creativecommons.org/ns#"
   xmlns:rdf="http://www.w3.org/1999/02/22-rdf-syntax-ns#"
   xmlns:svg="http://www.w3.org/2000/svg"
   xmlns="http://www.w3.org/2000/svg"
   xmlns:xlink="http://www.w3.org/1999/xlink"
   xmlns:sodipodi="http://sodipodi.sourceforge.net/DTD/sodipodi-0.dtd"
   xmlns:inkscape="http://www.inkscape.org/namespaces/inkscape"
   width="16"
   height="16"
   id="svg25900"
   version="1.1"
   inkscape:version="0.48.3.1 r9886"
   sodipodi:docname="diodon-panel.svg">
  <defs
     id="defs25902">
    <radialGradient
       inkscape:collect="always"
       xlink:href="#SVGID_3_"
       id="radialGradient3305"
       gradientUnits="userSpaceOnUse"
       gradientTransform="matrix(1,0,0,-1,24.9448,588.3594)"
       cx="163.4902"
       cy="274.86621"
       r="2.8801" />
    <radialGradient
       gradientUnits="userSpaceOnUse"
       gradientTransform="matrix(1,0,0,-1,24.9448,588.3594)"
       r="2.8801"
       cy="274.86621"
       cx="163.4902"
       id="SVGID_3_">
      <stop
         id="stop190"
         style="stop-color:#FAF0BB"
         offset="0.0112" />
      <stop
         id="stop192"
         style="stop-color:#FAF0BD"
         offset="0.4917" />
      <stop
         id="stop194"
         style="stop-color:#FBF2C5"
         offset="0.6648" />
      <stop
         id="stop196"
         style="stop-color:#FCF6D0"
         offset="0.7882" />
      <stop
         id="stop198"
         style="stop-color:#FCF8E1"
         offset="0.8879" />
      <stop
         id="stop200"
         style="stop-color:#FFFDF7"
         offset="0.9723" />
      <stop
         id="stop202"
         style="stop-color:#FFFFFF"
         offset="1" />
    </radialGradient>
    <radialGradient
       inkscape:collect="always"
       xlink:href="#SVGID_4_"
       id="radialGradient3307"
       gradientUnits="userSpaceOnUse"
       gradientTransform="matrix(1,0,0,-1,24.9448,588.3594)"
       cx="155.3242"
       cy="310.6777"
       r="4.4867001" />
    <radialGradient
       gradientUnits="userSpaceOnUse"
       gradientTransform="matrix(1,0,0,-1,24.9448,588.3594)"
       r="4.4867001"
       cy="310.6777"
       cx="155.3242"
       id="SVGID_4_">
      <stop
         id="stop207"
         style="stop-color:#FAF0BB"
         offset="0.0112" />
      <stop
         id="stop209"
         style="stop-color:#FAF0BD"
         offset="0.4917" />
      <stop
         id="stop211"
         style="stop-color:#FBF2C5"
         offset="0.6648" />
      <stop
         id="stop213"
         style="stop-color:#FCF6D0"
         offset="0.7882" />
      <stop
         id="stop215"
         style="stop-color:#FCF8E1"
         offset="0.8879" />
      <stop
         id="stop217"
         style="stop-color:#FFFDF7"
         offset="0.9723" />
      <stop
         id="stop219"
         style="stop-color:#FFFFFF"
         offset="1" />
    </radialGradient>
    <radialGradient
       inkscape:collect="always"
       xlink:href="#SVGID_5_"
       id="radialGradient3310"
       gradientUnits="userSpaceOnUse"
       gradientTransform="matrix(1,0,0,-1,24.9448,588.3594)"
       cx="170.3125"
       cy="302.00781"
       r="5.0811" />
    <radialGradient
       gradientUnits="userSpaceOnUse"
       gradientTransform="matrix(1,0,0,-1,24.9448,588.3594)"
       r="5.0811"
       cy="302.00781"
       cx="170.3125"
       id="SVGID_5_">
      <stop
         id="stop224"
         style="stop-color:#FAF0BB"
         offset="0.0112" />
      <stop
         id="stop226"
         style="stop-color:#FAF0BD"
         offset="0.4917" />
      <stop
         id="stop228"
         style="stop-color:#FBF2C5"
         offset="0.6648" />
      <stop
         id="stop230"
         style="stop-color:#FCF6D0"
         offset="0.7882" />
      <stop
         id="stop232"
         style="stop-color:#FCF8E1"
         offset="0.8879" />
      <stop
         id="stop234"
         style="stop-color:#FFFDF7"
         offset="0.9723" />
      <stop
         id="stop236"
         style="stop-color:#FFFFFF"
         offset="1" />
    </radialGradient>
    <radialGradient
       inkscape:collect="always"
       xlink:href="#SVGID_6_"
       id="radialGradient3312"
       gradientUnits="userSpaceOnUse"
       gradientTransform="matrix(1,0,0,-1,24.9448,588.3594)"
       cx="173.2812"
       cy="283.68359"
       r="2.8803999" />
    <radialGradient
       gradientUnits="userSpaceOnUse"
       gradientTransform="matrix(1,0,0,-1,24.9448,588.3594)"
       r="2.8803999"
       cy="283.68359"
       cx="173.2812"
       id="SVGID_6_">
      <stop
         id="stop241"
         style="stop-color:#FAF0BB"
         offset="0.0112" />
      <stop
         id="stop243"
         style="stop-color:#FAF0BD"
         offset="0.4917" />
      <stop
         id="stop245"
         style="stop-color:#FBF2C5"
         offset="0.6648" />
      <stop
         id="stop247"
         style="stop-color:#FCF6D0"
         offset="0.7882" />
      <stop
         id="stop249"
         style="stop-color:#FCF8E1"
         offset="0.8879" />
      <stop
         id="stop251"
         style="stop-color:#FFFDF7"
         offset="0.9723" />
      <stop
         id="stop253"
         style="stop-color:#FFFFFF"
         offset="1" />
    </radialGradient>
    <radialGradient
       inkscape:collect="always"
       xlink:href="#SVGID_7_"
       id="radialGradient3314"
       gradientUnits="userSpaceOnUse"
       gradientTransform="matrix(1,0,0,-1,24.9448,588.3594)"
       cx="148.9492"
       cy="270.04489"
       r="2.8799" />
    <radialGradient
       gradientUnits="userSpaceOnUse"
       gradientTransform="matrix(1,0,0,-1,24.9448,588.3594)"
       r="2.8799"
       cy="270.04489"
       cx="148.9492"
       id="SVGID_7_">
      <stop
         id="stop258"
         style="stop-color:#FAF0BB"
         offset="0.0112" />
      <stop
         id="stop260"
         style="stop-color:#FAF0BD"
         offset="0.4917" />
      <stop
         id="stop262"
         style="stop-color:#FBF2C5"
         offset="0.6648" />
      <stop
         id="stop264"
         style="stop-color:#FCF6D0"
         offset="0.7882" />
      <stop
         id="stop266"
         style="stop-color:#FCF8E1"
         offset="0.8879" />
      <stop
         id="stop268"
         style="stop-color:#FFFDF7"
         offset="0.9723" />
      <stop
         id="stop270"
         style="stop-color:#FFFFFF"
         offset="1" />
    </radialGradient>
    <radialGradient
       inkscape:collect="always"
       xlink:href="#SVGID_8_"
       id="radialGradient3316"
       gradientUnits="userSpaceOnUse"
       gradientTransform="matrix(1,0,0,-1,24.9448,588.3594)"
       cx="148.0723"
       cy="319.09381"
       r="3.9265001" />
    <radialGradient
       gradientUnits="userSpaceOnUse"
       gradientTransform="matrix(1,0,0,-1,24.9448,588.3594)"
       r="3.9265001"
       cy="319.09381"
       cx="148.0723"
       id="SVGID_8_">
      <stop
         id="stop275"
         style="stop-color:#FAF0BB"
         offset="0.0112" />
      <stop
         id="stop277"
         style="stop-color:#FAF0BD"
         offset="0.4917" />
      <stop
         id="stop279"
         style="stop-color:#FBF2C5"
         offset="0.6648" />
      <stop
         id="stop281"
         style="stop-color:#FCF6D0"
         offset="0.7882" />
      <stop
         id="stop283"
         style="stop-color:#FCF8E1"
         offset="0.8879" />
      <stop
         id="stop285"
         style="stop-color:#FFFDF7"
         offset="0.9723" />
      <stop
         id="stop287"
         style="stop-color:#FFFFFF"
         offset="1" />
    </radialGradient>
    <radialGradient
       inkscape:collect="always"
       xlink:href="#SVGID_9_"
       id="radialGradient3318"
       gradientUnits="userSpaceOnUse"
       gradientTransform="matrix(1,0,0,-1,24.9448,588.3594)"
       cx="112.9551"
       cy="315.56049"
       r="3.0683999" />
    <radialGradient
       gradientUnits="userSpaceOnUse"
       gradientTransform="matrix(1,0,0,-1,24.9448,588.3594)"
       r="3.0683999"
       cy="315.56049"
       cx="112.9551"
       id="SVGID_9_">
      <stop
         id="stop292"
         style="stop-color:#FAF0BB"
         offset="0.0112" />
      <stop
         id="stop294"
         style="stop-color:#FAF0BD"
         offset="0.4917" />
      <stop
         id="stop296"
         style="stop-color:#FBF2C5"
         offset="0.6648" />
      <stop
         id="stop298"
         style="stop-color:#FCF6D0"
         offset="0.7882" />
      <stop
         id="stop300"
         style="stop-color:#FCF8E1"
         offset="0.8879" />
      <stop
         id="stop302"
         style="stop-color:#FFFDF7"
         offset="0.9723" />
      <stop
         id="stop304"
         style="stop-color:#FFFFFF"
         offset="1" />
    </radialGradient>
    <radialGradient
       inkscape:collect="always"
       xlink:href="#SVGID_10_"
       id="radialGradient3320"
       gradientUnits="userSpaceOnUse"
       gradientTransform="matrix(1,0,0,-1,24.9448,588.3594)"
       cx="132.0938"
       cy="320.1113"
       r="4.1712999" />
    <radialGradient
       gradientUnits="userSpaceOnUse"
       gradientTransform="matrix(1,0,0,-1,24.9448,588.3594)"
       r="4.1712999"
       cy="320.1113"
       cx="132.0938"
       id="SVGID_10_">
      <stop
         id="stop309"
         style="stop-color:#FAF0BB"
         offset="0.0112" />
      <stop
         id="stop311"
         style="stop-color:#FAF0BD"
         offset="0.4917" />
      <stop
         id="stop313"
         style="stop-color:#FBF2C5"
         offset="0.6648" />
      <stop
         id="stop315"
         style="stop-color:#FCF6D0"
         offset="0.7882" />
      <stop
         id="stop317"
         style="stop-color:#FCF8E1"
         offset="0.8879" />
      <stop
         id="stop319"
         style="stop-color:#FFFDF7"
         offset="0.9723" />
      <stop
         id="stop321"
         style="stop-color:#FFFFFF"
         offset="1" />
    </radialGradient>
    <radialGradient
       inkscape:collect="always"
       xlink:href="#SVGID_11_"
       id="radialGradient3322"
       gradientUnits="userSpaceOnUse"
       gradientTransform="matrix(1,0,0,-1,24.9448,588.3594)"
       cx="147.44189"
       cy="301.21091"
       r="2.5313001" />
    <radialGradient
       gradientUnits="userSpaceOnUse"
       gradientTransform="matrix(1,0,0,-1,24.9448,588.3594)"
       r="2.5313001"
       cy="301.21091"
       cx="147.44189"
       id="SVGID_11_">
      <stop
         id="stop326"
         style="stop-color:#FAF0BB"
         offset="0.0112" />
      <stop
         id="stop328"
         style="stop-color:#FAF0BD"
         offset="0.4917" />
      <stop
         id="stop330"
         style="stop-color:#FBF2C5"
         offset="0.6648" />
      <stop
         id="stop332"
         style="stop-color:#FCF6D0"
         offset="0.7882" />
      <stop
         id="stop334"
         style="stop-color:#FCF8E1"
         offset="0.8879" />
      <stop
         id="stop336"
         style="stop-color:#FFFDF7"
         offset="0.9723" />
      <stop
         id="stop338"
         style="stop-color:#FFFFFF"
         offset="1" />
    </radialGradient>
  </defs>
  <sodipodi:namedview
     id="base"
     pagecolor="#ffffff"
     bordercolor="#666666"
     borderopacity="1.0"
     inkscape:pageopacity="0.0"
     inkscape:pageshadow="2"
     inkscape:zoom="11.197802"
     inkscape:cx="16"
     inkscape:cy="16"
     inkscape:current-layer="layer1"
     showgrid="true"
     inkscape:grid-bbox="true"
     inkscape:document-units="px"
     inkscape:window-width="1600"
     inkscape:window-height="876"
     inkscape:window-x="0"
     inkscape:window-y="24"
     inkscape:window-maximized="1" />
  <metadata
     id="metadata25905">
    <rdf:RDF>
      <cc:Work
         rdf:about="">
        <dc:format>image/svg+xml</dc:format>
        <dc:type
           rdf:resource="http://purl.org/dc/dcmitype/StillImage" />
        <dc:title />
      </cc:Work>
    </rdf:RDF>
  </metadata>
  <g
     id="layer1"
     inkscape:label="Layer 1"
     inkscape:groupmode="layer"
     transform="translate(0,-16)">
    <g
       id="g3183"
       transform="matrix(0.29719209,0,0,0.25546015,0.77084193,13.764694)">
      <path
         d="m 47.748262,36.240641 c -0.304876,-0.669777 -0.939962,-2.526029 -1.264261,-3.180039 -0.499962,-1.005938 -2.409862,-0.340737 -2.850285,-1.402107 -0.615238,-1.481949 0.402841,-3.075783 -0.26687,-4.517046 -0.51052,-1.098494 -2.320767,-1.749962 -2.830861,-2.848458 -0.374128,-0.804542 0.05785,-5.080024 -0.915894,-3.703855 -1.643875,2.32362 -3.133623,4.929999 -4.51865,7.769812 -0.227178,-0.299544 -0.460268,-0.590441 -0.699692,-0.872694 l 1.273972,-2.395837 -1.94875,1.641638 C 33.517528,26.509306 33.303862,26.293167 33.085974,26.08364 l 0.936581,-2.162914 -1.564066,1.585187 C 31.923058,25.034986 31.365246,24.598131 30.785899,24.1984 l 1.168829,-5.78896 -2.873088,4.753021 C 28.796189,23.01091 28.507361,22.866987 28.213887,22.732727 l 0.283762,-3.540102 -1.360114,3.093074 C 25.924369,21.832064 24.65631,21.526925 23.350669,21.385545 l -0.349636,-4.806419 -1.226255,4.716403 c -0.0033,0 -0.0071,0 -0.01056,0 -1.422186,-0.0066 -2.818193,0.185117 -4.164371,0.553823 l -1.190787,-2.856081 0.196351,3.163762 c -0.403261,0.139347 -0.801035,0.294459 -1.193319,0.465334 l -0.676466,-1.193086 0.243647,1.388883 c -0.482226,0.226309 -0.954317,0.47703 -1.416273,0.750127 l -2.649288,-2.676561 1.488058,3.425166 c -0.733893,0.515174 -1.434852,1.088322 -2.09654,1.715887 -0.09374,0.089 -0.187063,0.180031 -0.279538,0.271064 l -2.6176137,-1.775898 1.7557735,2.685206 c -0.2643372,0.297002 -0.5214955,0.60519 -0.7718972,0.922533 l -2.0728961,-1.396004 1.4580788,2.215805 c -0.340767,0.479065 -0.6650662,0.978474 -0.9716305,1.49568 -1.2705932,0.251233 -2.4081735,1.157486 -3.0905527,2.497041 0.00253,-0.005 0.00508,-0.01071 0.00802,-0.01578 -0.5079841,0.01071 -0.9074462,0.311242 -1.1177337,1.046115 -0.7347402,2.568744 -0.5366981,4.375156 0.1689057,5.408554 -0.1199231,0.09664 -0.2373126,0.202409 -0.3517463,0.317854 -1.90145688,1.925922 -2.20548742,5.78845 -0.6790012,8.625208 0.8470624,1.574001 2.0796522,2.501617 3.3341996,2.686733 0.6452198,1.719448 1.4880601,3.337183 2.5116286,4.809977 3.3333522,4.799809 8.4203702,7.849148 14.2412852,7.722516 5.766442,-0.126125 10.741561,-3.352949 13.962593,-8.195477 2.268826,-3.410417 3.604027,-7.536378 3.803758,-11.87187 L 41.77997,42.904823 39.623044,42.4461 c 0.003,-0.734364 -0.02618,-1.473813 -0.08952,-2.215806 l 3.332089,-2.112565 -3.537731,0.400746 C 39.264542,38.110618 39.19107,37.708348 39.108306,37.31116 l 0.959807,-0.628583 -1.067483,0.13782 c -0.02618,-0.113909 -0.05278,-0.226818 -0.08023,-0.33972 2.756541,-0.434818 5.473393,-0.393116 8.225288,0.328024 0.699694,0.183591 0.893512,0.07272 0.602574,-0.568064 z M 3.2551113,34.170284 c -0.017313,0.06662 -0.033782,0.134262 -0.04856,0.202916 -0.0114,0.05139 -0.022381,0.102733 -0.032514,0.154602 0.010132,-0.05188 0.020692,-0.10325 0.032514,-0.154602 0.01478,-0.06866 0.031247,-0.136294 0.04856,-0.202916 z m 0.4049515,-1.11121 c -0.010132,0.02085 -0.020269,0.04223 -0.030404,0.06306 0.010132,-0.02085 0.02027,-0.04222 0.030404,-0.06306 z m -0.079808,0.172404 c -0.010557,0.02339 -0.020692,0.0473 -0.030825,0.07119 0.010132,-0.02389 0.02027,-0.04782 0.030825,-0.07119 z m -0.075164,0.177488 c -0.010557,0.02644 -0.021113,0.0529 -0.031248,0.07984 0.010132,-0.02694 0.020692,-0.0534 0.031248,-0.07984 z m -0.070097,0.182573 c -0.010979,0.03002 -0.021535,0.06 -0.032092,0.09001 0.010557,-0.03002 0.021113,-0.06002 0.032092,-0.09001 z m -0.06545,0.187661 c -0.01098,0.03407 -0.021535,0.06866 -0.032515,0.103238 0.010979,-0.03458 0.021113,-0.06866 0.032515,-0.103238 z m -0.059962,0.193252 c -0.011823,0.04119 -0.023225,0.08289 -0.034626,0.124599 0.0114,-0.04172 0.022381,-0.08342 0.034626,-0.124599 z m -0.2558905,1.703683 c -8.452e-4,0.05034 -8.452e-4,0.100695 -4.223e-4,0.150535 -4.223e-4,-0.05034 -4.223e-4,-0.100705 4.223e-4,-0.150535 z m 0.1106333,-1.097477 c -0.00633,0.03458 -0.012668,0.06866 -0.018578,0.103239 0.00591,-0.03407 0.012245,-0.06866 0.018578,-0.103239 z m -0.028713,0.164775 c -0.00507,0.03153 -0.010132,0.06256 -0.01478,0.09357 0.00464,-0.03101 0.00971,-0.06204 0.01478,-0.09357 z m -0.023646,0.15867 c -0.00423,0.03053 -0.00802,0.06053 -0.011823,0.09052 0.00379,-0.03052 0.0076,-0.06054 0.011823,-0.09052 z m -0.019423,0.156131 c -0.00338,0.03002 -0.00633,0.05949 -0.00929,0.0895 0.00296,-0.03002 0.00591,-0.05951 0.00929,-0.0895 z m -0.015624,0.155617 c -0.00253,0.03002 -0.00464,0.06001 -0.00717,0.09001 0.00253,-0.03002 0.00508,-0.06001 0.00717,-0.09001 z m -0.0114,0.154604 c -0.0017,0.03154 -0.00338,0.06256 -0.00507,0.09408 0.0017,-0.03153 0.00338,-0.06256 0.00507,-0.09408 z m -0.0076,0.154095 c -0.00127,0.03662 -0.00211,0.07322 -0.00296,0.109332 4.221e-4,-0.03662 0.00127,-0.07272 0.00296,-0.109332 z m 0.1634162,1.705207 c -0.0076,-0.03203 -0.01478,-0.06407 -0.021535,-0.09611 0.00718,0.03205 0.013934,0.06407 0.021535,0.09611 z m -0.037161,-0.168331 c -0.00802,-0.03865 -0.015624,-0.07728 -0.023225,-0.115944 0.0076,0.03865 0.015624,0.07729 0.023225,0.115944 z m -0.033785,-0.176983 c -0.00507,-0.02847 -0.010132,-0.05696 -0.01478,-0.08543 0.00464,0.02795 0.010132,0.05696 0.01478,0.08543 z m -0.024491,-0.152059 c -0.00423,-0.02694 -0.00844,-0.05392 -0.012245,-0.08138 0.00379,0.02694 0.0076,0.05442 0.012245,0.08138 z m -0.021113,-0.150025 c -0.00338,-0.02694 -0.00675,-0.0534 -0.00971,-0.08086 0.00296,0.02747 0.00633,0.05442 0.00971,0.08086 z m -0.017313,-0.149518 c -0.00296,-0.02694 -0.00549,-0.05392 -0.00802,-0.08137 0.00253,0.02747 0.00508,0.05441 0.00802,0.08137 z m -0.013934,-0.150024 c -0.00211,-0.02795 -0.00423,-0.05546 -0.00591,-0.08341 0.0017,0.02747 0.00379,0.05544 0.00591,0.08341 z m -0.010132,-0.150536 c -0.0017,-0.0295 -0.00296,-0.059 -0.00423,-0.0885 0.00127,0.0295 0.00253,0.05898 0.00423,0.0885 z m -0.00675,-0.15206 c -0.00127,-0.03356 -0.0017,-0.06765 -0.00211,-0.101717 0,0.03407 8.451e-4,0.06814 0.00211,0.101717 z m 0.180307,1.313616 c 0.00633,0.02644 0.012668,0.0529 0.019424,0.07882 -0.00633,-0.02644 -0.012668,-0.05239 -0.019424,-0.07882 z m 0.1811488,1.679273 c -0.00211,9.74e-4 -0.00423,0.0021 -0.00633,0.003 0,0 0,0 4.224e-4,0 0.015624,-0.01072 0.031247,-0.02137 0.046871,-0.03205 -0.013511,0.0097 -0.027025,0.01933 -0.04096,0.02896 z M 3.2745435,37.437285 c 0.00675,0.02492 0.013511,0.04984 0.020692,0.07476 -0.00717,-0.02492 -0.013934,-0.04984 -0.020692,-0.07476 z m 0.040537,0.141888 c 0.00717,0.0244 0.014357,0.04883 0.021957,0.07272 -0.00717,-0.0244 -0.014779,-0.04832 -0.021957,-0.07272 z m 0.043072,0.139347 c 0.00802,0.02389 0.015624,0.04782 0.023646,0.0717 -0.0076,-0.02389 -0.015624,-0.04728 -0.023646,-0.0717 z m 0.046449,0.137819 c 0.00844,0.02389 0.016891,0.04782 0.025758,0.07171 -0.00844,-0.02389 -0.017313,-0.0473 -0.025758,-0.07171 z m 0.049405,0.135789 c 0.00929,0.0244 0.019001,0.04883 0.028292,0.07322 -0.00929,-0.02441 -0.019001,-0.04831 -0.028292,-0.07322 z m 0.052361,0.134256 c 0.010979,0.02747 0.022803,0.05442 0.034203,0.08188 -0.0114,-0.02747 -0.023225,-0.05442 -0.034203,-0.08188 z m 0.055317,0.13223 c 0.018158,0.04223 0.037159,0.08491 0.056584,0.12663 -0.019001,-0.04223 -0.038005,-0.0844 -0.056584,-0.12663 z m 0.081498,0.178505 c 0.012245,0.02543 0.024491,0.05086 0.036737,0.07627 -0.012668,-0.02543 -0.024491,-0.05086 -0.036737,-0.07627 z m 0.065028,0.132734 c 0.011824,0.02339 0.023646,0.04678 0.035893,0.07019 -0.012246,-0.02339 -0.024069,-0.04678 -0.035893,-0.07019 z m 0.066295,0.12714 c 0.00802,0.01423 0.015624,0.029 0.023646,0.04272 -0.012668,0.0066 -0.025336,0.01272 -0.037582,0.01933 0.012246,-0.0066 0.02449,-0.01373 0.036737,-0.01983 -0.00802,-0.01373 -0.015202,-0.02797 -0.022803,-0.04223 z"
         id="path5"
         inkscape:connector-curvature="0" />
      <path
         d="m 46.872485,35.321668 c -0.295587,-0.574676 -0.59117,-1.149351 -0.887179,-1.724024 -0.411284,-0.79946 -2.442377,-0.780135 -2.853662,-1.579594 -0.640154,-1.243435 0.339923,-3.306671 -0.300232,-4.550104 -0.487293,-0.94745 -2.164949,-1.469746 -2.652242,-2.417196 -0.272784,-0.53043 -0.355546,-1.274964 -0.330633,-1.912193 0.05237,-1.364979 0.09627,-2.14664 -0.825104,-0.815224 -1.463147,2.115108 -2.790324,4.459071 -4.019957,7.001881 0.08403,0.130191 0.166794,0.262928 0.248715,0.39617 1.867674,-0.780645 3.579534,-1.925924 5.084062,-3.359053 -1.390517,1.582138 -3.033126,2.860154 -4.860686,3.733354 0.119078,0.203934 0.236469,0.410917 0.350057,0.620953 -0.87662,-1.47788 -1.904834,-2.797597 -3.043681,-3.931183 l -0.220844,0.510597 1.016812,-2.721313 -1.72115,1.539922 0.100502,-0.101717 c -0.426911,-0.375317 -0.869023,-0.727243 -1.324646,-1.05679 l -0.259691,1.287172 0.928137,-6.116986 -3.276349,4.782515 0.695047,-1.149347 C 27.064907,22.874104 25.27366,22.28112 23.39754,22.038534 l 0.05785,0.790309 -0.581035,-4.788622 -1.425989,4.509928 0.165107,-0.635193 c -0.02449,0 -0.04899,-9.74e-4 -0.07348,-9.74e-4 -2.69658,-0.0122 -5.297306,0.706904 -7.628628,2.005263 l 0.994011,1.003896 -3.222299,-2.891682 1.639229,4.403639 -0.736427,-1.695038 c -0.777812,0.531955 -1.518886,1.130533 -2.214777,1.791154 -0.5865257,0.556877 -1.1460249,1.161557 -1.6734311,1.809973 l 0.3800423,0.25581 -2.2287093,-1.303955 1.2275217,2.117143 -0.091631,-0.139345 c -0.260959,0.36159 -0.5122061,0.73538 -0.7533194,1.120363 0,0 4.226e-4,0 4.226e-4,0 0.058698,-0.0046 0.1178119,-0.0076 0.1769282,-0.0097 0.4197311,-0.01322 0.848329,0.04476 1.274816,0.182576 0.9543158,0.307679 1.753238,0.965757 2.327517,1.82777 1.042571,-3.636727 4.259803,-5.735561 7.393005,-4.724541 3.275504,1.057303 5.220032,5.114101 4.342567,9.059015 -0.238157,1.070014 -0.659578,2.022044 -1.212743,2.819977 0.07093,0.03205 0.14188,0.06509 0.212399,0.100705 0.08361,0.04223 0.165949,0.08645 0.247024,0.132733 -2.976541,-1.313107 -6.314119,0.418546 -7.548398,3.975938 -1.2347,3.558409 0.08783,7.634533 2.955006,9.262947 -0.08446,-0.03713 -0.168483,-0.07627 -0.252515,-0.118496 -3.038191,-1.529246 -4.4722,-5.736577 -3.202452,-9.39619 0.218733,-0.629601 0.502918,-1.20224 0.839884,-1.711309 -1.472858,-0.618921 -2.639575,-1.861338 -3.348979,-3.411436 -0.588214,1.277509 -1.5788438,2.193938 -2.71769,2.574851 0.033789,0.06461 0.067143,0.129174 0.099654,0.195797 1.344911,2.750302 0.9285586,6.379401 -0.9298248,8.103932 -0.051515,0.04782 -0.1038771,0.09407 -0.1566596,0.137821 h 0 c 0.026184,-0.02694 0.05236,-0.05442 0.078121,-0.08188 8.773e-4,-0.0014 0.00167,-0.0026 0.00296,-0.0036 0.024916,-0.02694 0.049402,-0.05442 0.073895,-0.08239 0.00128,-0.0021 0.00296,-0.0036 0.00462,-0.005 0.024071,-0.02795 0.047713,-0.05545 0.070937,-0.08341 0.00167,-0.0026 0.00384,-0.0046 0.0055,-0.0071 0.023227,-0.02796 0.045607,-0.05543 0.067989,-0.08391 0.00216,-0.003 0.00423,-0.0061 0.00675,-0.0086 0.021955,-0.02847 0.043919,-0.05646 0.065029,-0.08542 0.00251,-0.003 0.00512,-0.0066 0.0072,-0.0097 0.021109,-0.02847 0.042228,-0.05696 0.062493,-0.08645 0.00251,-0.0036 0.00512,-0.0072 0.00755,-0.01071 0.020265,-0.0295 0.040538,-0.05799 0.060379,-0.08797 0.00251,-0.004 0.00512,-0.0076 0.008,-0.01121 0.01942,-0.0295 0.038848,-0.05898 0.058277,-0.08899 0.00251,-0.0046 0.00549,-0.0086 0.008,-0.0122 0.018997,-0.03002 0.037589,-0.06 0.055741,-0.09052 0.00251,-0.0046 0.00549,-0.0086 0.008,-0.01272 0.018152,-0.03052 0.036322,-0.06103 0.054051,-0.09204 0.00251,-0.0046 0.00512,-0.009 0.008,-0.01322 0.017729,-0.03153 0.035054,-0.06204 0.052361,-0.09357 0.00251,-0.005 0.00513,-0.0097 0.00755,-0.01373 0.017306,-0.03153 0.033789,-0.06306 0.050253,-0.09508 0.00251,-0.005 0.00513,-0.0097 0.00755,-0.01423 0.016464,-0.03153 0.032521,-0.06407 0.048559,-0.09613 0.00213,-0.005 0.00455,-0.0097 0.00716,-0.01425 0.015622,-0.03253 0.031254,-0.06509 0.046458,-0.09816 0.00213,-0.0046 0.00426,-0.0097 0.00677,-0.01373 0.015206,-0.03304 0.030402,-0.06713 0.045191,-0.100694 0.00213,-0.004 0.00387,-0.009 0.0059,-0.01272 0.01478,-0.03409 0.029559,-0.06865 0.043913,-0.102733 0.00175,-0.0046 0.00329,-0.0086 0.00513,-0.0122 0.014354,-0.03508 0.028291,-0.07019 0.042229,-0.105275 0.00126,-0.004 0.003,-0.0082 0.00426,-0.0112 0.013937,-0.0356 0.027449,-0.07222 0.040961,-0.108333 8.768e-4,-0.003 0.00213,-0.0061 0.00329,-0.0097 0.013511,-0.03662 0.026607,-0.07425 0.039693,-0.111368 8.769e-4,-0.0026 0.00175,-0.005 0.00251,-0.0076 0.013085,-0.03815 0.026181,-0.07627 0.038425,-0.115439 0,-9.73e-4 4.229e-4,-0.0021 8.769e-4,-0.0026 0.1570825,-0.485678 0.2630703,-1.002882 0.3166975,-1.535857 4.228e-4,-0.004 8.777e-4,-0.0082 0.00124,-0.01118 0.00383,-0.03762 0.00713,-0.07528 0.010132,-0.113404 4.219e-4,-0.0082 0.00124,-0.01576 0.00217,-0.02389 0.003,-0.03458 0.00548,-0.06968 0.00755,-0.104238 8.767e-4,-0.01071 0.00176,-0.02238 0.00248,-0.03305 0.00217,-0.03253 0.00383,-0.06561 0.00548,-0.09816 4.218e-4,-0.01322 0.00124,-0.02644 0.00217,-0.03917 0.00176,-0.03153 0.00248,-0.06306 0.00383,-0.09459 4.229e-4,-0.01474 8.778e-4,-0.03002 0.00176,-0.04425 8.777e-4,-0.03052 0.00124,-0.06053 0.00217,-0.09052 4.228e-4,-0.01627 8.777e-4,-0.03253 8.777e-4,-0.04883 4.229e-4,-0.0295 4.229e-4,-0.05799 4.229e-4,-0.08747 0,-0.01728 0,-0.03459 0,-0.05239 0,-0.02847 -4.229e-4,-0.05644 -8.778e-4,-0.08492 0,-0.01831 -4.228e-4,-0.03611 -4.228e-4,-0.05441 -4.208e-4,-0.02796 -0.00124,-0.05544 -0.00217,-0.08339 -4.229e-4,-0.0188 -8.767e-4,-0.03763 -0.00176,-0.05645 -8.767e-4,-0.02694 -0.00217,-0.0534 -0.00331,-0.08086 -8.768e-4,-0.01984 -0.00176,-0.03918 -0.003,-0.05899 -0.00124,-0.02694 -0.003,-0.0529 -0.00455,-0.07935 -0.00124,-0.02032 -0.00248,-0.04068 -0.00383,-0.06053 -0.00176,-0.02644 -0.00383,-0.05238 -0.00589,-0.07832 -0.00176,-0.02085 -0.00331,-0.04119 -0.00517,-0.06204 -0.00217,-0.02594 -0.00455,-0.05138 -0.00713,-0.0768 -0.00176,-0.02136 -0.00424,-0.04222 -0.00631,-0.06307 -0.00248,-0.02543 -0.00548,-0.05086 -0.00842,-0.07577 -0.00251,-0.02185 -0.00513,-0.04323 -0.00755,-0.06461 -0.003,-0.02492 -0.0059,-0.04985 -0.00929,-0.07425 -0.003,-0.02185 -0.0059,-0.04375 -0.0089,-0.06561 -0.00329,-0.02492 -0.00677,-0.04934 -0.01056,-0.07425 -0.00329,-0.02185 -0.00677,-0.04425 -0.010132,-0.06612 -0.00387,-0.02439 -0.00755,-0.04883 -0.011401,-0.07322 -0.00387,-0.02237 -0.00755,-0.04476 -0.011401,-0.06661 -0.00426,-0.02441 -0.00842,-0.04831 -0.01267,-0.07221 -0.00426,-0.02288 -0.00842,-0.04526 -0.01267,-0.06765 -0.00455,-0.02389 -0.0089,-0.04782 -0.013937,-0.07119 -0.00455,-0.02288 -0.00929,-0.04526 -0.013938,-0.06815 -0.00513,-0.0234 -0.00971,-0.04729 -0.015206,-0.07069 -0.00513,-0.02288 -0.010132,-0.04576 -0.015206,-0.06866 -0.00513,-0.02288 -0.010549,-0.04629 -0.016047,-0.06915 -0.00552,-0.02339 -0.010976,-0.04629 -0.01688,-0.06915 -0.00552,-0.02288 -0.010975,-0.04576 -0.01688,-0.06814 -0.0059,-0.02339 -0.011827,-0.04678 -0.018148,-0.06968 -0.0059,-0.02288 -0.011818,-0.04527 -0.018148,-0.06765 -0.0063,-0.0234 -0.01267,-0.04628 -0.019416,-0.06968 -0.0063,-0.02238 -0.01267,-0.04425 -0.018999,-0.06661 -0.00677,-0.0234 -0.013937,-0.04678 -0.021109,-0.07019 -0.00677,-0.02185 -0.013086,-0.04374 -0.019842,-0.0656 -0.00755,-0.02389 -0.015206,-0.0473 -0.022804,-0.0707 -0.00677,-0.02136 -0.013937,-0.0427 -0.020683,-0.0646 -0.00803,-0.02339 -0.016038,-0.04679 -0.024071,-0.07069 -0.00755,-0.02085 -0.014354,-0.04222 -0.021952,-0.06306 -0.00842,-0.0244 -0.017306,-0.04831 -0.026181,-0.07221 -0.00755,-0.02031 -0.01478,-0.04069 -0.022378,-0.06103 -0.0089,-0.02441 -0.018574,-0.04883 -0.027875,-0.07272 -0.00755,-0.02032 -0.015206,-0.04018 -0.022804,-0.05949 -0.00971,-0.02492 -0.019842,-0.04933 -0.029985,-0.07425 -0.00803,-0.01865 -0.015622,-0.03799 -0.023645,-0.05732 -0.010975,-0.02594 -0.021952,-0.05188 -0.033363,-0.0768 -0.00755,-0.0178 -0.015206,-0.0351 -0.022804,-0.0529 -0.01267,-0.0295 -0.026182,-0.05799 -0.039267,-0.08696 -0.00677,-0.0137 -0.01267,-0.02845 -0.019416,-0.04219 C 8.552808,41.518875 8.532531,41.476167 8.511847,41.433436 7.1669757,38.683133 4.5692051,37.851124 2.7108196,39.57515 0.85243366,41.299176 0.436081,44.928276 1.7809934,47.678578 c 0.023225,0.04782 0.046871,0.0951 0.07094,0.140872 0.0076,0.01474 0.015624,0.0295 0.023225,0.04425 0.01689,0.03153 0.033358,0.06307 0.05025,0.09459 0.00887,0.01626 0.018158,0.03307 0.027448,0.04985 0.016468,0.0295 0.032514,0.05799 0.048982,0.08645 0.00929,0.01627 0.018578,0.03253 0.028291,0.04883 0.017735,0.03002 0.035048,0.0595 0.053205,0.0885 0.00844,0.01373 0.01689,0.02795 0.025336,0.04172 0.024491,0.03917 0.048983,0.07729 0.073473,0.115944 0.00211,0.0036 0.00423,0.0072 0.00633,0.01012 0.027025,0.0417 0.054894,0.0824 0.082765,0.123071 0.00802,0.01121 0.015624,0.02237 0.023646,0.03305 0.020269,0.02896 0.040538,0.05746 0.061228,0.08595 0.00971,0.01322 0.019424,0.02694 0.029136,0.03966 0.019423,0.02644 0.038848,0.05239 0.058271,0.07729 0.00971,0.01271 0.019847,0.02594 0.029981,0.03865 0.020692,0.02694 0.041381,0.0529 0.062496,0.0783 0.00887,0.01071 0.017735,0.02185 0.026181,0.03255 0.027025,0.03305 0.054473,0.06561 0.082342,0.09764 0.00253,0.003 0.00464,0.0061 0.00718,0.0086 0.031248,0.03611 0.062496,0.07119 0.094165,0.105779 0.00591,0.0066 0.011823,0.0122 0.017735,0.0188 0.025337,0.02747 0.050671,0.05392 0.076429,0.08086 0.00887,0.0097 0.018158,0.0183 0.027448,0.02796 0.023226,0.02339 0.046027,0.0468 0.069674,0.06969 0.00929,0.0097 0.019001,0.0183 0.028292,0.02796 0.024491,0.02339 0.048982,0.04678 0.073473,0.06915 0.00802,0.0076 0.016046,0.01474 0.024069,0.02238 0.031247,0.02847 0.062496,0.05645 0.094587,0.08391 0.00127,9.74e-4 0.00253,0.0021 0.00338,0.003 0.035048,0.03002 0.070097,0.05898 0.1051438,0.08747 0.0017,0.0014 0.00338,0.003 0.00508,0.0046 0.032091,0.02594 0.064184,0.05086 0.096698,0.07527 0.00718,0.0056 0.014357,0.01073 0.021535,0.01578 0.027448,0.02085 0.055317,0.04069 0.083186,0.0605 0.00802,0.0061 0.016046,0.01121 0.024069,0.01678 0.028293,0.02032 0.057006,0.03967 0.08572,0.059 0.00633,0.004 0.012668,0.0086 0.019424,0.0122 0.1072551,0.07119 0.2166217,0.135784 0.3268326,0.193761 0.00423,0.0021 0.00887,0.0046 0.01309,0.0066 0.032515,0.01678 0.064607,0.03307 0.097121,0.04883 0.0059,0.003 0.012246,0.0061 0.018158,0.009 0.032092,0.01524 0.064607,0.03052 0.096698,0.04425 0.00464,0.0021 0.00929,0.0046 0.014356,0.0066 0.1135892,0.04933 0.2284449,0.09256 0.3433009,0.128156 0.0017,5.1e-4 0.00338,9.74e-4 0.00549,0.0014 0.035892,0.0112 0.071785,0.02187 0.1076773,0.03154 0.00464,9.73e-4 0.00929,0.0026 0.013934,0.0036 0.034626,0.0097 0.068829,0.0178 0.1034547,0.02594 0.00379,9.74e-4 0.00802,0.0021 0.011824,0.003 0.1169673,0.02694 0.2343567,0.04679 0.3517462,0.05951 l 0,0 c 0.6481757,1.849131 1.52733,3.584344 2.6163505,5.151733 3.2493206,4.67828 8.2075476,7.650825 13.8810926,7.526736 5.62076,-0.12256 10.470044,-3.267511 13.60958,-7.987475 2.711782,-4.077649 4.055427,-9.202937 3.667366,-14.468077 l -0.625796,0.397186 3.441877,-2.497548 -4.004333,0.160197 0.94925,-0.107311 c -0.220421,-1.378712 -0.556544,-2.696396 -0.990631,-3.942371 0.168484,0.428718 0.325565,0.867097 0.469134,1.315141 2.798347,-0.571116 5.565447,-0.68554 8.28863,-0.151043 0.771477,0.153076 0.933204,0.41702 0.464491,-0.493815 z m -12.799679,3.703349 c -0.150327,4.243438 -1.599116,6.202419 -3.283952,6.35143 -0.291784,0.02594 -0.581036,-0.003 -0.882953,-0.08339 0.127101,0.01169 0.25378,0.01373 0.380461,0.005 0.947982,-0.0656 1.826292,-0.718089 2.438574,-2.048996 -1.654432,-1.002882 -3.38487,-1.607564 -5.059992,-1.826755 1.684833,0.07272 3.4651,0.599086 5.159647,1.598919 0.215777,-0.520259 0.393129,-1.134093 0.522342,-1.846589 -1.866407,-0.63926 -3.746752,-0.830988 -5.497882,-0.626039 1.72875,-0.355486 3.641185,-0.255806 5.541374,0.37074 0.08615,-0.535514 0.146526,-1.122905 0.176508,-1.764709 0.0114,-0.238514 -0.003,-0.451602 -0.03927,-0.641804 -2.009135,-0.114427 -3.941838,0.243602 -5.656652,0.971863 1.643451,-0.864048 3.568132,-1.320736 5.586133,-1.236826 -0.412129,-1.186475 -1.895967,-1.250044 -3.554621,-0.903205 2.210554,-0.579759 4.250091,-0.552808 4.170283,1.68029 z m 2.44111,-7.055789 c 1.92468,-0.563996 3.721414,-1.511446 5.334888,-2.770136 -1.510441,1.419396 -3.24806,2.506191 -5.138958,3.16783 -0.06418,-0.133245 -0.129212,-0.265977 -0.19593,-0.397694 z m 0.825526,1.842519 c -0.05574,-0.141379 -0.112746,-0.282252 -0.171017,-0.421598 1.999844,-0.298525 3.997577,-0.112402 5.887635,0.505511 -1.862188,-0.401765 -3.791937,-0.442449 -5.716618,-0.08392 z"
         id="path14"
         style="fill:#f0a513;fill-opacity:1"
         inkscape:connector-curvature="0" />
      <path
         d="m 17.971864,28.383357 c 3.029325,0.977457 4.82775,4.729117 4.016157,8.37805 -0.214087,0.963215 -0.589481,1.823193 -1.080996,2.549419 -2.202109,-0.672827 -4.51105,0.238008 -5.964907,2.257001 -2.974852,-1.022212 -4.729782,-4.734713 -3.926214,-8.347029 0.811593,-3.648933 3.926636,-5.815407 6.95596,-4.837441 z"
         id="path16"
         inkscape:connector-curvature="0"
         style="fill:#ffffff" />
      <path
         d="m 21.46948,31.675787 c 0.688291,1.496188 0.915048,3.303109 0.518541,5.08562 -0.214087,0.963215 -0.589481,1.823193 -1.080996,2.549419 -2.202532,-0.672827 -4.511474,0.238008 -5.965329,2.257001 -1.217389,-0.418038 -2.2304,-1.28768 -2.947405,-2.415671 0.307831,0.161723 0.630018,0.298527 0.964451,0.406343 3.605716,1.163589 7.313197,-1.414313 8.279337,-5.756922 0.157927,-0.710463 0.232246,-1.423974 0.231401,-2.12579 z"
         id="path18"
         inkscape:connector-curvature="0"
         style="fill:#eeeeee" />
      <path
         d="m 11.148494,37.665629 c -0.473779,-1.361928 -0.61397,-2.903379 -0.33232,-4.44127 -0.52952,-1.020176 -1.3685584,-1.810482 -2.4090152,-2.146133 -2.1826849,-0.704357 -4.4270197,0.856418 -5.0118558,3.484667 -0.3242991,1.457031 -0.070517,2.936437 0.5915924,4.085786 1.0683288,-0.4694 2.2489802,-0.271571 3.2581915,0.503477 0.4619579,0.354468 0.8876005,0.829465 1.2503252,1.416854 1.1793816,-0.417022 2.1776139,-1.463641 2.6530819,-2.903381 z"
         id="path20"
         inkscape:connector-curvature="0"
         style="fill:#ffffff" />
      <path
         d="m 31.2411,51.394259 1.26637,0.637229 -2.465178,-0.01373 c -4.530473,2.179698 -9.426207,2.60994 -12.629927,1.007461 -0.08825,-0.03864 -0.176507,-0.07984 -0.264338,-0.124092 -3.038191,-1.529243 -4.472201,-5.736578 -3.202453,-9.39619 0.218732,-0.6296 0.503339,-1.202239 0.840306,-1.710803 l 0,-5.07e-4 c -1.472857,-0.618925 -2.639574,-1.861849 -3.348978,-3.411437 -0.588215,1.277507 -1.5788467,2.193936 -2.7176907,2.574848 0.033779,0.06461 0.067143,0.129175 0.099655,0.195796 1.3449097,2.750303 0.9285573,6.379402 -0.9298254,8.103935 -0.051515,0.04782 -0.1038771,0.09408 -0.1566605,0.137821 l 0,0 c -0.048979,0.05034 -0.098387,0.09866 -0.1494812,0.145956 -0.7486746,0.694696 -1.6176949,0.974406 -2.4761587,0.880322 l 0,5.08e-4 c 0.6477536,1.848622 1.5273307,3.584344 2.6159279,5.151732 3.2493226,4.678262 8.2075486,7.650298 13.8810926,7.526717 5.620762,-0.12256 10.470046,-3.268018 13.609581,-7.987982 2.123568,-3.192243 3.407673,-7.028327 3.678768,-11.070884 -1.87021,3.185631 -4.634352,5.665888 -7.651009,7.353296 z"
         id="path183"
         style="fill:#fdd99b"
         inkscape:connector-curvature="0" />
      <path
         d="m 11.261241,44.175223 c -0.158773,-0.250722 -0.250827,-0.566539 -0.243648,-0.906768 0.01224,-0.584846 0.312898,-1.079675 0.733895,-1.291745 -0.616928,0.507545 -0.839039,1.75098 -0.173129,2.336839 0.277429,0.243604 0.439579,0.574168 0.370749,1.028824 -0.05363,0.355991 -0.262648,0.802509 -0.591168,1.144265 -0.374972,0.389558 -0.833129,0.599593 -1.228791,0.541109 0.37835,-0.112404 0.757541,-0.387016 1.06284,-0.752165 0.26307,-0.314291 0.444644,-0.675369 0.519384,-0.97542 0.14906,-0.596542 -0.181995,-0.701818 -0.450132,-1.124939 l 0,0 z m 1.895122,4.408723 c -0.233935,0.931683 -0.952208,1.610106 -1.802226,1.610106 -0.765564,0 -1.4251397,-0.551279 -1.7190352,-1.342094 0.3783472,0.632143 0.9944302,1.044078 1.6907442,1.044078 0.790057,0 1.477502,-0.530939 1.830517,-1.31209 z"
         id="path185"
         inkscape:connector-curvature="0" />
      <g
         id="g187"
         transform="matrix(0.42226435,0,0,0.50856192,-47.726977,-111.72952)">
        <radialGradient
           id="radialGradient3241"
           cx="163.4902"
           cy="274.86621"
           r="2.8801"
           gradientTransform="matrix(1,0,0,-1,24.9448,588.3594)"
           gradientUnits="userSpaceOnUse">
          <stop
             offset="0.0112"
             style="stop-color:#FAF0BB"
             id="stop3243" />
          <stop
             offset="0.4917"
             style="stop-color:#FAF0BD"
             id="stop3245" />
          <stop
             offset="0.6648"
             style="stop-color:#FBF2C5"
             id="stop3247" />
          <stop
             offset="0.7882"
             style="stop-color:#FCF6D0"
             id="stop3249" />
          <stop
             offset="0.8879"
             style="stop-color:#FCF8E1"
             id="stop3251" />
          <stop
             offset="0.9723"
             style="stop-color:#FFFDF7"
             id="stop3253" />
          <stop
             offset="1"
             style="stop-color:#FFFFFF"
             id="stop3255" />
        </radialGradient>
        <path
           d="m 189.806,311.298 c -0.681,-0.478 -1.432,-0.68 -2.1,-0.645 -0.633,0.034 -1.217,0.284 -1.625,0.739 -0.408,0.454 -0.59,1.052 -0.559,1.676 0.034,0.653 0.305,1.364 0.834,1.98 0.577,0.671 1.35,1.108 2.143,1.244 0.845,0.145 1.679,-0.06 2.247,-0.657 0.573,-0.604 0.725,-1.448 0.515,-2.282 -0.199,-0.789 -0.713,-1.534 -1.455,-2.055 z"
           id="path204"
           style="fill:url(#radialGradient3305)"
           inkscape:connector-curvature="0" />
        <radialGradient
           id="radialGradient3258"
           cx="155.3242"
           cy="310.6777"
           r="4.4867001"
           gradientTransform="matrix(1,0,0,-1,24.9448,588.3594)"
           gradientUnits="userSpaceOnUse">
          <stop
             offset="0.0112"
             style="stop-color:#FAF0BB"
             id="stop3260" />
          <stop
             offset="0.4917"
             style="stop-color:#FAF0BD"
             id="stop3262" />
          <stop
             offset="0.6648"
             style="stop-color:#FBF2C5"
             id="stop3264" />
          <stop
             offset="0.7882"
             style="stop-color:#FCF6D0"
             id="stop3266" />
          <stop
             offset="0.8879"
             style="stop-color:#FCF8E1"
             id="stop3268" />
          <stop
             offset="0.9723"
             style="stop-color:#FFFDF7"
             id="stop3270" />
          <stop
             offset="1"
             style="stop-color:#FFFFFF"
             id="stop3272" />
        </radialGradient>
        <path
           d="m 183.164,274.256 c -0.777,-0.621 -1.774,-0.996 -2.853,-1 -1.077,-0.004 -2.096,0.366 -2.89,0.992 -0.839,0.661 -1.465,1.633 -1.646,2.791 -0.197,1.263 0.167,2.499 0.961,3.449 0.841,1.005 2.124,1.644 3.592,1.617 1.455,-0.026 2.71,-0.702 3.522,-1.716 0.762,-0.951 1.106,-2.168 0.913,-3.4 -0.179,-1.131 -0.786,-2.082 -1.599,-2.733 z"
           id="path221"
           style="fill:url(#radialGradient3307)"
           inkscape:connector-curvature="0" />
        <radialGradient
           id="radialGradient3275"
           cx="170.3125"
           cy="302.00781"
           r="5.0811"
           gradientTransform="matrix(1,0,0,-1,24.9448,588.3594)"
           gradientUnits="userSpaceOnUse">
          <stop
             offset="0.0112"
             style="stop-color:#FAF0BB"
             id="stop3277" />
          <stop
             offset="0.4917"
             style="stop-color:#FAF0BD"
             id="stop3279" />
          <stop
             offset="0.6648"
             style="stop-color:#FBF2C5"
             id="stop3281" />
          <stop
             offset="0.7882"
             style="stop-color:#FCF6D0"
             id="stop3283" />
          <stop
             offset="0.8879"
             style="stop-color:#FCF8E1"
             id="stop3285" />
          <stop
             offset="0.9723"
             style="stop-color:#FFFDF7"
             id="stop3287" />
          <stop
             offset="1"
             style="stop-color:#FFFFFF"
             id="stop3289" />
        </radialGradient>
        <path
           d="m 197.254,290.925 c 1.482,-0.322 2.697,-1.225 3.201,-2.604 0.5,-1.367 0.166,-2.845 -0.726,-4.066 -0.835,-1.146 -2.134,-2.023 -3.647,-2.408 -1.389,-0.352 -2.723,-0.223 -3.781,0.238 -1.011,0.439 -1.812,1.196 -2.21,2.198 -0.397,1.001 -0.335,2.12 0.108,3.146 0.468,1.083 1.377,2.112 2.666,2.812 1.407,0.762 2.987,0.989 4.389,0.684 z"
           id="path238"
           style="fill:url(#radialGradient3310)"
           inkscape:connector-curvature="0" />
        <radialGradient
           id="radialGradient3292"
           cx="173.2812"
           cy="283.68359"
           r="2.8803999"
           gradientTransform="matrix(1,0,0,-1,24.9448,588.3594)"
           gradientUnits="userSpaceOnUse">
          <stop
             offset="0.0112"
             style="stop-color:#FAF0BB"
             id="stop3294" />
          <stop
             offset="0.4917"
             style="stop-color:#FAF0BD"
             id="stop3296" />
          <stop
             offset="0.6648"
             style="stop-color:#FBF2C5"
             id="stop3298" />
          <stop
             offset="0.7882"
             style="stop-color:#FCF6D0"
             id="stop3300" />
          <stop
             offset="0.8879"
             style="stop-color:#FCF8E1"
             id="stop3302" />
          <stop
             offset="0.9723"
             style="stop-color:#FFFDF7"
             id="stop3304" />
          <stop
             offset="1"
             style="stop-color:#FFFFFF"
             id="stop3306" />
        </radialGradient>
        <path
           d="m 200.538,302.533 c -0.568,-0.598 -1.402,-0.802 -2.248,-0.657 -0.792,0.136 -1.565,0.573 -2.143,1.244 -0.529,0.616 -0.8,1.327 -0.833,1.98 -0.032,0.624 0.15,1.222 0.559,1.676 0.408,0.455 0.991,0.705 1.624,0.739 0.668,0.035 1.42,-0.167 2.101,-0.645 0.741,-0.521 1.256,-1.267 1.454,-2.056 0.21,-0.833 0.058,-1.677 -0.514,-2.281 z"
           id="path255"
           style="fill:url(#radialGradient3312)"
           inkscape:connector-curvature="0" />
        <radialGradient
           id="radialGradient3309"
           cx="148.9492"
           cy="270.04489"
           r="2.8799"
           gradientTransform="matrix(1,0,0,-1,24.9448,588.3594)"
           gradientUnits="userSpaceOnUse">
          <stop
             offset="0.0112"
             style="stop-color:#FAF0BB"
             id="stop3311" />
          <stop
             offset="0.4917"
             style="stop-color:#FAF0BD"
             id="stop3313" />
          <stop
             offset="0.6648"
             style="stop-color:#FBF2C5"
             id="stop3315" />
          <stop
             offset="0.7882"
             style="stop-color:#FCF6D0"
             id="stop3317" />
          <stop
             offset="0.8879"
             style="stop-color:#FCF8E1"
             id="stop3319" />
          <stop
             offset="0.9723"
             style="stop-color:#FFFDF7"
             id="stop3321" />
          <stop
             offset="1"
             style="stop-color:#FFFFFF"
             id="stop3323" />
        </radialGradient>
        <path
           d="m 173.958,315.516 c -0.793,0.136 -1.566,0.573 -2.143,1.244 -0.529,0.616 -0.801,1.327 -0.834,1.98 -0.031,0.623 0.15,1.222 0.559,1.676 0.408,0.455 0.991,0.705 1.624,0.738 0.669,0.036 1.42,-0.166 2.101,-0.645 0.741,-0.521 1.256,-1.266 1.454,-2.055 0.211,-0.834 0.06,-1.679 -0.514,-2.282 -0.568,-0.598 -1.402,-0.801 -2.247,-0.656 z"
           id="path272"
           style="fill:url(#radialGradient3314)"
           inkscape:connector-curvature="0" />
        <radialGradient
           id="radialGradient3326"
           cx="148.0723"
           cy="319.09381"
           r="3.9265001"
           gradientTransform="matrix(1,0,0,-1,24.9448,588.3594)"
           gradientUnits="userSpaceOnUse">
          <stop
             offset="0.0112"
             style="stop-color:#FAF0BB"
             id="stop3328" />
          <stop
             offset="0.4917"
             style="stop-color:#FAF0BD"
             id="stop3330" />
          <stop
             offset="0.6648"
             style="stop-color:#FBF2C5"
             id="stop3332" />
          <stop
             offset="0.7882"
             style="stop-color:#FCF6D0"
             id="stop3334" />
          <stop
             offset="0.8879"
             style="stop-color:#FCF8E1"
             id="stop3336" />
          <stop
             offset="0.9723"
             style="stop-color:#FFFDF7"
             id="stop3338" />
          <stop
             offset="1"
             style="stop-color:#FFFFFF"
             id="stop3340" />
        </radialGradient>
        <path
           d="m 171.282,272.336 c 1.106,0.549 2.333,0.68 3.407,0.405 1.136,-0.291 2.049,-1.022 2.398,-2.102 0.347,-1.069 0.048,-2.201 -0.675,-3.119 -0.678,-0.861 -1.706,-1.502 -2.885,-1.756 -1.083,-0.233 -2.109,-0.095 -2.914,0.291 -0.768,0.368 -1.365,0.975 -1.645,1.76 -0.278,0.785 -0.198,1.646 0.173,2.426 0.394,0.822 1.125,1.592 2.141,2.095 z"
           id="path289"
           style="fill:url(#radialGradient3316)"
           inkscape:connector-curvature="0" />
        <radialGradient
           id="radialGradient3343"
           cx="112.9551"
           cy="315.56049"
           r="3.0683999"
           gradientTransform="matrix(1,0,0,-1,24.9448,588.3594)"
           gradientUnits="userSpaceOnUse">
          <stop
             offset="0.0112"
             style="stop-color:#FAF0BB"
             id="stop3345" />
          <stop
             offset="0.4917"
             style="stop-color:#FAF0BD"
             id="stop3347" />
          <stop
             offset="0.6648"
             style="stop-color:#FBF2C5"
             id="stop3349" />
          <stop
             offset="0.7882"
             style="stop-color:#FCF6D0"
             id="stop3351" />
          <stop
             offset="0.8879"
             style="stop-color:#FCF8E1"
             id="stop3353" />
          <stop
             offset="0.9723"
             style="stop-color:#FFFDF7"
             id="stop3355" />
          <stop
             offset="1"
             style="stop-color:#FFFFFF"
             id="stop3357" />
        </radialGradient>
        <path
           d="m 140.776,270.8 c -0.132,-0.306 -0.298,-0.603 -0.496,-0.884 0,0 -0.001,-10e-4 -0.001,-10e-4 -0.031,0.02 -0.061,0.042 -0.091,0.062 -0.1,0.067 -0.199,0.135 -0.298,0.203 -0.12,0.082 -0.24,0.163 -0.358,0.246 -0.123,0.085 -0.245,0.173 -0.366,0.26 -0.096,0.068 -0.193,0.136 -0.289,0.206 -0.146,0.106 -0.29,0.213 -0.434,0.321 -0.072,0.054 -0.145,0.106 -0.216,0.161 -0.215,0.163 -0.429,0.328 -0.641,0.495 -0.223,0.175 -0.443,0.354 -0.663,0.535 -0.064,0.053 -0.129,0.107 -0.194,0.161 -0.171,0.143 -0.341,0.287 -0.51,0.432 -0.054,0.046 -0.108,0.092 -0.162,0.139 -0.193,0.167 -0.384,0.337 -0.574,0.509 -0.098,0.088 -0.196,0.178 -0.293,0.268 -0.099,0.09 -0.196,0.182 -0.294,0.274 -0.079,0.074 -0.16,0.146 -0.238,0.222 0,0 0.001,0.001 0.001,0.001 0.177,0.156 0.363,0.299 0.555,0.429 0.596,0.402 1.257,0.671 1.927,0.786 1.185,0.202 2.356,-0.083 3.152,-0.922 0.804,-0.847 1.017,-2.032 0.722,-3.202 -0.06,-0.24 -0.14,-0.473 -0.239,-0.701 z"
           id="path306"
           style="fill:url(#radialGradient3318)"
           inkscape:connector-curvature="0" />
        <radialGradient
           id="radialGradient3360"
           cx="132.0938"
           cy="320.1113"
           r="4.1712999"
           gradientTransform="matrix(1,0,0,-1,24.9448,588.3594)"
           gradientUnits="userSpaceOnUse">
          <stop
             offset="0.0112"
             style="stop-color:#FAF0BB"
             id="stop3362" />
          <stop
             offset="0.4917"
             style="stop-color:#FAF0BD"
             id="stop3364" />
          <stop
             offset="0.6648"
             style="stop-color:#FBF2C5"
             id="stop3366" />
          <stop
             offset="0.7882"
             style="stop-color:#FCF6D0"
             id="stop3368" />
          <stop
             offset="0.8879"
             style="stop-color:#FCF8E1"
             id="stop3370" />
          <stop
             offset="0.9723"
             style="stop-color:#FFFDF7"
             id="stop3372" />
          <stop
             offset="1"
             style="stop-color:#FFFFFF"
             id="stop3374" />
        </radialGradient>
        <path
           d="m 160.2,265.6 c -0.85,-0.392 -1.938,-0.592 -3.115,-0.521 -1.177,0.07 -2.29,0.405 -3.157,0.906 -0.916,0.53 -1.6,1.269 -1.798,2.11 -0.216,0.917 0.182,1.777 1.05,2.403 0.918,0.663 2.32,1.032 3.923,0.914 1.588,-0.118 2.959,-0.687 3.847,-1.468 0.833,-0.732 1.209,-1.627 0.998,-2.496 -0.195,-0.799 -0.859,-1.438 -1.748,-1.848 z"
           id="path323"
           style="fill:url(#radialGradient3320)"
           inkscape:connector-curvature="0" />
        <radialGradient
           id="radialGradient3377"
           cx="147.44189"
           cy="301.21091"
           r="2.5313001"
           gradientTransform="matrix(1,0,0,-1,24.9448,588.3594)"
           gradientUnits="userSpaceOnUse">
          <stop
             offset="0.0112"
             style="stop-color:#FAF0BB"
             id="stop3379" />
          <stop
             offset="0.4917"
             style="stop-color:#FAF0BD"
             id="stop3381" />
          <stop
             offset="0.6648"
             style="stop-color:#FBF2C5"
             id="stop3383" />
          <stop
             offset="0.7882"
             style="stop-color:#FCF6D0"
             id="stop3385" />
          <stop
             offset="0.8879"
             style="stop-color:#FCF8E1"
             id="stop3387" />
          <stop
             offset="0.9723"
             style="stop-color:#FFFDF7"
             id="stop3389" />
          <stop
             offset="1"
             style="stop-color:#FFFFFF"
             id="stop3391" />
        </radialGradient>
        <path
           d="m 173.961,289.2 c 0.657,-0.143 1.12,-0.506 1.265,-1.029 0.133,-0.48 -0.03,-1.015 -0.381,-1.495 -0.335,-0.458 -0.853,-0.886 -1.498,-1.196 -0.645,-0.31 -1.333,-0.461 -1.94,-0.451 -0.643,0.011 -1.223,0.2 -1.576,0.587 -0.385,0.422 -0.428,0.996 -0.152,1.584 0.291,0.622 0.925,1.231 1.811,1.642 0.876,0.408 1.77,0.51 2.471,0.358 z"
           id="path340"
           style="fill:url(#radialGradient3322)"
           inkscape:connector-curvature="0" />
      </g>
      <path
         d="m 32.300561,46.79686 c -0.244913,-0.207495 -0.516006,-0.294969 -0.756275,-0.27971 -0.2276,0.01425 -0.437888,0.12307 -0.584836,0.320395 -0.147371,0.197321 -0.212822,0.456181 -0.201419,0.726735 0.01182,0.283777 0.109788,0.591457 0.300228,0.85845 0.207332,0.290901 0.486027,0.480592 0.771056,0.539586 0.304451,0.06256 0.605105,-0.02543 0.809057,-0.284794 0.206488,-0.26191 0.260961,-0.628075 0.185374,-0.989662 -0.07136,-0.342262 -0.256312,-0.665199 -0.523185,-0.891 z"
         id="path347"
         style="fill:#000000"
         inkscape:connector-curvature="0" />
      <g
         id="g349"
         transform="matrix(0.42226435,0,0,0.50856192,-47.726977,-111.72952)">
        <path
           d="m 168.559,264.427 c 4.145,0.407 8.127,1.382 11.858,2.845 l 0.623,-0.856 c -3.919,-1.741 -8.161,-2.906 -12.604,-3.384 l 0.123,1.395 z"
           id="path351"
           inkscape:connector-curvature="0"
           style="fill:#ffffff" />
        <path
           d="m 145.971,266.73 1.059,0.888 c 5.193,-2.147 10.87,-3.351 16.738,-3.403 l 0.009,-0.038 0.435,-1.388 c -0.059,0 -0.116,-0.002 -0.175,-0.002 -6.387,-0.024 -12.545,1.39 -18.066,3.943 z"
           id="path353"
           inkscape:connector-curvature="0"
           style="fill:#ffffff" />
        <path
           d="m 185.374,269.579 c 0.97,0.527 1.917,1.087 2.84,1.683 l 0.494,-0.416 c -1.011,-0.738 -2.058,-1.431 -3.138,-2.078 l -0.196,0.811 z"
           id="path355"
           inkscape:connector-curvature="0"
           style="fill:#ffffff" />
        <path
           d="m 190.66,272.366 -0.224,0.429 c 0.458,0.338 0.91,0.683 1.354,1.038 1.494,1.193 2.916,2.493 4.25,3.889 -1.633,-1.962 -3.44,-3.752 -5.38,-5.356 z"
           id="path357"
           inkscape:connector-curvature="0"
           style="fill:#ffffff" />
        <path
           d="m 140.28,269.916 c 0.198,0.281 0.363,0.578 0.496,0.884 0.84,-0.514 1.699,-1.002 2.575,-1.462 l -0.52,-0.994 c -0.871,0.494 -1.721,1.019 -2.551,1.572 z"
           id="path359"
           inkscape:connector-curvature="0"
           style="fill:#ffffff" />
        <path
           d="m 133.625,275.426 0.562,0.314 c 0.338,-0.307 0.681,-0.608 1.028,-0.904 -0.192,-0.129 -0.378,-0.272 -0.555,-0.429 -0.35,0.333 -0.696,0.673 -1.035,1.019 z"
           id="path361"
           inkscape:connector-curvature="0"
           style="fill:#ffffff" />
        <path
           d="m 130.152,279.456 c 0.139,-0.009 0.279,-0.015 0.419,-0.019 0.538,-0.62 1.091,-1.224 1.66,-1.81 l -0.295,-0.374 c -0.618,0.713 -1.212,1.447 -1.784,2.203 z"
           id="path363"
           inkscape:connector-curvature="0"
           style="fill:#ffffff" />
      </g>
      <path
         d="m 11.717707,25.989048 c -0.05574,-0.15562 -0.125834,-0.306666 -0.209444,-0.44957 -0.01309,0.01012 -0.02618,0.02032 -0.03885,0.03052 -0.04223,0.03408 -0.08403,0.06866 -0.125835,0.10324 -0.05067,0.0417 -0.101339,0.08289 -0.151171,0.125104 -0.05194,0.04324 -0.103455,0.08798 -0.154549,0.132228 -0.04054,0.03459 -0.0815,0.06916 -0.122034,0.104767 -0.06165,0.0534 -0.122457,0.108333 -0.183263,0.16325 -0.03041,0.02747 -0.06122,0.05392 -0.09122,0.08188 -0.09078,0.08288 -0.181151,0.166809 -0.27067,0.251737 -0.09416,0.0895 -0.187063,0.180031 -0.279961,0.272083 -0.02703,0.02695 -0.05447,0.05442 -0.08192,0.08188 -0.07221,0.07272 -0.1439917,0.145958 -0.2153547,0.219699 -0.02281,0.02339 -0.0456,0.04679 -0.068411,0.07019 -0.081499,0.08492 -0.1621494,0.171895 -0.24238,0.258858 -0.041385,0.04477 -0.08276,0.09052 -0.1237229,0.136294 -0.041799,0.04628 -0.08276,0.09308 -0.1241459,0.139347 -0.033364,0.03762 -0.066717,0.07527 -0.1000776,0.113908 0.074741,0.07935 0.1532821,0.152062 0.2343573,0.218175 C 9.5506288,27.855494 9.7347353,27.672921 9.9217999,27.495432 10.4927,26.95178 11.092737,26.44983 11.717689,25.989072 z"
         id="path365"
         inkscape:connector-curvature="0"
         style="fill:#eeeeee" />
      <path
         d="m 28.381526,27.537111 c 0.388483,0.0014 0.747409,0.164265 1.026947,0.433802 0.293051,0.282252 0.512205,0.694697 0.575969,1.184949 0.06968,0.534499 -0.05447,1.061878 -0.328523,1.474322 -0.292629,0.439906 -0.744451,0.732838 -1.26806,0.744027 -0.528674,0.01119 -0.990631,-0.26547 -1.292973,-0.70131 -0.286295,-0.411932 -0.417197,-0.947959 -0.345834,-1.495681 0.06503,-0.501949 0.290517,-0.923546 0.592437,-1.209867 0.28545,-0.271063 0.652399,-0.431769 1.040037,-0.430242 z"
         id="path372"
         style="fill:#000000"
         inkscape:connector-curvature="0" />
      <path
         d="m 13.466305,55.28374 c 0.178195,0.09256 0.329787,0.214614 0.43662,0.342772 0.111901,0.134768 0.178619,0.281236 0.168063,0.408885 -0.0114,0.139346 -0.111902,0.231394 -0.271518,0.261399 -0.170172,0.03153 -0.401994,-0.0082 -0.64353,-0.129175 -0.244069,-0.12256 -0.433666,-0.295472 -0.53712,-0.467367 -0.09797,-0.162232 -0.114433,-0.316834 -0.03674,-0.425668 0.07093,-0.100193 0.209021,-0.143413 0.37117,-0.13782 0.152859,0.005 0.334856,0.05491 0.513051,0.146974 l 0,0 z m -2.368059,-0.261399 c 0.05025,0.0122 0.09585,0.04017 0.130479,0.0768 0.03588,0.03815 0.06165,0.08797 0.06671,0.140364 0.0055,0.05696 -0.01435,0.10731 -0.05278,0.141381 -0.04097,0.0356 -0.101763,0.05188 -0.169749,0.03611 -0.06883,-0.01525 -0.127102,-0.05848 -0.163417,-0.113404 -0.03463,-0.05139 -0.04772,-0.110861 -0.03463,-0.164774 0.01183,-0.04984 0.04392,-0.08594 0.0853,-0.10578 0.03885,-0.01831 0.08741,-0.02339 0.138081,-0.01071 l 0,0 z m 3.807979,2.368373 c 0.09627,0.02389 0.183263,0.07728 0.248714,0.147481 0.06925,0.07322 0.117813,0.167318 0.127101,0.267506 0.01013,0.109332 -0.02745,0.204948 -0.100915,0.270045 -0.07854,0.06866 -0.194242,0.09866 -0.324299,0.06968 -0.131324,-0.03002 -0.24238,-0.111886 -0.311631,-0.216139 -0.06545,-0.09816 -0.09122,-0.21156 -0.0663,-0.314799 0.02281,-0.09459 0.08446,-0.163757 0.162995,-0.2019 0.07515,-0.03611 0.16806,-0.04576 0.264336,-0.02185 l 0,0 z m -2.357501,-1.035942 c -0.09333,-0.04831 -0.188754,-0.07425 -0.269405,-0.0768 -0.08487,-0.003 -0.157504,0.01983 -0.194242,0.07222 -0.04054,0.05696 -0.03209,0.137821 0.01942,0.222749 0.05405,0.09052 0.153704,0.18054 0.281651,0.245128 0.126679,0.06356 0.247869,0.08391 0.337388,0.06765 0.08362,-0.01576 0.136392,-0.06407 0.142304,-0.137313 0.0055,-0.06713 -0.02956,-0.143414 -0.08783,-0.214102 -0.05658,-0.06714 -0.135969,-0.13121 -0.22929,-0.179526 z"
         id="path374"
         inkscape:connector-curvature="0"
         style="fill:#d9bb7a" />
      <path
         d="m 32.89722,32.895826 c 0.143148,-0.434312 0.431555,-0.762333 0.795547,-0.953043 0.380884,-0.199865 0.861841,-0.255808 1.361803,-0.10325 0.544721,0.166808 1.012166,0.547722 1.313242,1.044079 0.320921,0.529412 0.440844,1.170201 0.26096,1.762675 -0.181574,0.59807 -0.618618,0.989661 -1.15236,1.129517 -0.504607,0.132224 -1.073818,0.03356 -1.579691,-0.297003 -0.464491,-0.303099 -0.791747,-0.749617 -0.960229,-1.219019 -0.160039,-0.444994 -0.182419,-0.929651 -0.03927,-1.363962 z"
         id="path381"
         style="fill:#000000"
         inkscape:connector-curvature="0" />
      <path
         d="m 35.093418,44.08063 c -0.146948,-0.197323 -0.212399,-0.456178 -0.200998,-0.726732 0.01182,-0.28378 0.109367,-0.591461 0.299807,-0.858457 0.207754,-0.290895 0.486028,-0.480589 0.771477,-0.540093 0.304453,-0.06256 0.604685,0.02594 0.809059,0.285306 0.206487,0.261909 0.26096,0.628075 0.184952,0.989659 -0.07137,0.342262 -0.256313,0.6652 -0.523607,0.891001 -0.244913,0.207492 -0.515586,0.294965 -0.755853,0.27971 -0.227601,-0.01423 -0.437466,-0.123072 -0.584837,-0.320394 z"
         id="path388"
         style="fill:#000000"
         inkscape:connector-curvature="0" />
      <path
         d="m 24.819304,51.017414 c -0.147371,-0.197322 -0.212821,-0.456179 -0.201421,-0.727243 0.01183,-0.283269 0.10979,-0.590948 0.30023,-0.858455 0.207333,-0.290896 0.485604,-0.481098 0.771055,-0.540089 0.304453,-0.06256 0.605106,0.02594 0.809059,0.285303 0.206487,0.261908 0.260959,0.628074 0.184952,0.989661 -0.07136,0.342263 -0.256314,0.6652 -0.523608,0.891002 -0.24449,0.207493 -0.515584,0.294964 -0.755854,0.279709 -0.2276,-0.01425 -0.437465,-0.123071 -0.584413,-0.319888 z"
         id="path395"
         style="fill:#000000"
         inkscape:connector-curvature="0" />
      <path
         d="m 23.786446,24.445052 c 0.102186,-0.347855 0.322609,-0.616885 0.605104,-0.779624 0.296007,-0.170876 0.673933,-0.232414 1.072129,-0.128666 0.433667,0.112897 0.812438,0.396678 1.061996,0.778609 0.266026,0.406849 0.376235,0.908289 0.24829,1.382269 -0.12879,0.47805 -0.464913,0.802512 -0.882532,0.931685 -0.395661,0.12205 -0.84664,0.06357 -1.254126,-0.17952 -0.374125,-0.222751 -0.642686,-0.563996 -0.787099,-0.928635 -0.137237,-0.346331 -0.166373,-0.728261 -0.06377,-1.076118 z"
         id="path402"
         style="fill:#000000"
         inkscape:connector-curvature="0" />
      <path
         d="m 9.3572511,27.571182 c 0.2537814,0.256316 0.5518992,0.424651 0.8555069,0.487204 0.426486,0.08747 0.848329,-0.03611 1.135047,-0.399731 0.28925,-0.367181 0.366103,-0.880828 0.259692,-1.388372 -0.0456,-0.217666 -0.123723,-0.429227 -0.230557,-0.625532 -0.344568,0.281745 -0.680268,0.577726 -1.006255,0.886932 -0.347524,0.330057 -0.6857564,0.676897 -1.0134339,1.039499 z"
         id="path409"
         style="fill:#000000"
         inkscape:connector-curvature="0" />
      <path
         d="m 9.3572511,27.571182 c 0.081923,0.08289 0.1684839,0.15664 0.2584255,0.220208 0.1013389,-0.100194 0.2031087,-0.199865 0.3061417,-0.296999 0.5244517,-0.497883 1.0733947,-0.962708 1.6434517,-1.391936 -0.04604,-0.15867 -0.109367,-0.312257 -0.188752,-0.457195 l 0,0 c -0.02997,0.02442 -0.05996,0.04933 -0.08995,0.07425 -0.01942,0.01628 -0.03927,0.03255 -0.05869,0.04883 -0.03336,0.02747 -0.0663,0.05545 -0.09923,0.08341 l -0.04519,0.03865 c -0.03758,0.03205 -0.07474,0.06407 -0.111899,0.09613 l -0.02997,0.02594 c -0.04139,0.03611 -0.08235,0.07221 -0.123301,0.108332 l -0.02026,0.01832 c -0.04392,0.03918 -0.08741,0.07781 -0.130901,0.117485 l -0.01309,0.01169 c -0.04603,0.04223 -0.09206,0.08442 -0.13808,0.12714 l -0.0018,0.0014 c -0.04815,0.04476 -0.09585,0.0895 -0.143569,0.134769 -0.07685,0.07322 -0.15286,0.146467 -0.228867,0.221226 l -0.01098,0.01072 c -0.02026,0.02032 -0.04097,0.04018 -0.06123,0.06051 l -0.01858,0.01882 -0.05236,0.05238 -0.02956,0.03002 -0.04307,0.04376 -0.03801,0.03865 -0.01605,0.01627 -0.01562,0.01627 -0.04771,0.04883 -0.01562,0.01627 C 9.6459492,27.256383 9.50069,27.412511 9.3571211,27.571183 z"
         id="path411"
         inkscape:connector-curvature="0"
         style="fill:#888678" />
      <path
         d="m 18.571057,23.295194 c 0.423955,-0.03051 0.815816,0.05645 1.121534,0.226311 0.320077,0.177997 0.559079,0.455163 0.629176,0.800985 0.07601,0.376844 -0.05954,0.764369 -0.359348,1.082221 -0.319232,0.338701 -0.812859,0.585354 -1.385028,0.636719 -0.577235,0.05138 -1.081841,-0.108827 -1.412472,-0.39617 -0.312477,-0.271573 -0.456047,-0.644349 -0.378351,-1.042043 0.07136,-0.364639 0.317965,-0.685034 0.647333,-0.914395 0.312897,-0.217665 0.713204,-0.363114 1.137156,-0.393628 z"
         id="path418"
         style="fill:#000000"
         inkscape:connector-curvature="0" />
      <path
         d="m 25.268593,33.539157 c 0.209865,0.121549 0.37835,0.289372 0.487716,0.468895 0.11401,0.188169 0.167216,0.397695 0.123723,0.585864 -0.04687,0.20495 -0.198043,0.347856 -0.412131,0.403289 -0.228021,0.05951 -0.519383,0.01933 -0.804835,-0.139854 -0.288406,-0.160707 -0.494471,-0.399731 -0.589482,-0.643842 -0.08995,-0.230376 -0.07601,-0.455669 0.04941,-0.620952 0.114856,-0.152061 0.304451,-0.226311 0.51305,-0.230379 0.198043,-0.0036 0.422688,0.05543 0.632553,0.176979 z"
         id="path425"
         style="fill:#000000"
         inkscape:connector-curvature="0" />
      <polygon
         points="188.385,321.662 183.827,319.426 190.01,322.008 182.526,321.973 "
         id="polygon427"
         transform="matrix(0.42226435,0,0,0.50856192,-47.726977,-111.72952)" />
      <polygon
         points="181.161,310.218 176.159,311.094 182.677,309.541 176.606,313.919 "
         id="polygon429"
         transform="matrix(0.42226435,0,0,0.50856192,-47.726977,-111.72952)" />
      <polygon
         points="188.996,281.271 183.955,287.956 191.129,279.553 180.144,285.178 "
         id="polygon431"
         transform="matrix(0.42226435,0,0,0.50856192,-47.726977,-111.72952)" />
      <path
         d="m 35.589578,54.524966 c -0.122034,0.197832 -0.247447,0.39312 -0.376237,0.586373 -3.139958,4.719964 -7.989242,7.864909 -13.609581,7.987982 C 15.929794,63.222902 10.97199,60.250356 7.7226683,55.572603 7.5229375,55.285266 7.3303849,54.991318 7.1445881,54.693299 c 3.5503959,4.555698 8.6741509,7.392458 14.4832419,7.265826 5.617804,-0.123069 10.532541,-3.002548 13.961748,-7.434159 z"
         id="path440"
         style="fill:#d9bb7a"
         inkscape:connector-curvature="0" />
      <path
         d="m 16.345302,52.251694 c -2.117655,-1.929991 -2.971052,-5.408047 -1.900189,-8.495019 1.184029,-3.41245 4.302452,-5.144614 7.182295,-4.121385 -2.791167,-0.695713 -5.69128,1.060859 -6.831394,4.34617 -1.023146,2.94966 -0.321343,6.249209 1.549288,8.270234 z"
         id="path442"
         inkscape:connector-curvature="0"
         style="fill:#ffffff" />
      <path
         d="m 7.9004418,49.211004 c 1.5839109,-1.826246 1.8765395,-5.188352 0.611861,-7.774387 -0.9606515,-1.964067 -2.560189,-2.949661 -4.0731622,-2.724366 1.4428771,-0.03307 2.911513,0.974913 3.8219146,2.837267 1.2266751,2.507718 1.0299008,5.725391 -0.3606134,7.661486 z"
         id="path444"
         inkscape:connector-curvature="0"
         style="fill:#ffffff" />
      <path
         d="m 46.744961,35.073491 -0.497006,-0.879306 c -0.446333,-0.789288 -2.616772,-1.271403 -3.063106,-2.060692 -0.04897,-0.08645 -0.08995,-0.178504 -0.124145,-0.273607 0.02111,0.05392 0.04434,0.106285 0.07093,0.157655 0.411286,0.799459 2.442378,0.780134 2.853664,1.579592 l 0.759653,1.476358 0,0 z m -3.840919,-4.235306 c -0.02154,-1.142737 0.276584,-2.476187 -0.211554,-3.339725 -0.684068,-1.210379 -3.109133,-1.708769 -3.070285,-3.678937 0.02618,-1.300901 0.05531,-2.044928 -0.877888,-0.830484 -0.474202,0.616888 -0.933204,1.256658 -1.378271,1.918806 0.532898,-0.895579 1.084376,-1.758098 1.656966,-2.58553 0.921382,-1.331414 0.877043,-0.549754 0.825104,0.815225 -0.02492,0.63723 0.05786,1.381764 0.330634,1.912701 0.487293,0.947452 2.164949,1.469236 2.652243,2.416687 0.464492,0.901679 0.07769,2.233605 0.07305,3.371257 z"
         id="path446"
         inkscape:connector-curvature="0"
         style="fill:#ffffff" />
      <path
         d="m 16.756588,33.897186 c 0.357235,-0.248687 0.77781,-0.246145 1.121111,-0.03865 -0.09501,0.0122 -0.189596,0.04832 -0.27785,0.109346 -0.338655,0.235464 -0.455199,0.757757 -0.25927,1.165625 0.19551,0.408372 0.629174,0.548229 0.96783,0.312255 0.08783,-0.06155 0.160883,-0.14189 0.217467,-0.234955 -0.02237,0.461773 -0.230979,0.901679 -0.588638,1.150367 -0.564566,0.39261 -1.287061,0.15918 -1.613471,-0.520769 -0.325145,-0.680454 -0.131747,-1.550096 0.432821,-1.943214 l 0,0 z m -8.4625961,1.183931 c 0.2575811,-0.179014 0.5603435,-0.177488 0.8077901,-0.02795 -0.068836,0.009 -0.1368128,0.03458 -0.2001525,0.07882 -0.2440687,0.169354 -0.327677,0.545687 -0.1866399,0.839639 0.1406128,0.293947 0.453088,0.394643 0.6971553,0.224782 0.063334,-0.04425 0.1161241,-0.102217 0.1570835,-0.16935 C 9.5527694,36.35966 9.4024339,36.676495 9.1452751,36.855507 8.7386349,37.138248 8.2179844,36.970431 7.983206,36.480169 7.7475821,35.990933 7.887351,35.363875 8.2939919,35.081114 z"
         id="path448"
         inkscape:connector-curvature="0" />
      <path
         d="m 11.148494,37.665629 c -0.260113,-0.748095 -0.420152,-1.550096 -0.46449,-2.376002 -0.533741,1.967118 -1.8647168,3.382956 -3.4389171,3.862529 0.4619579,0.354468 0.8876005,0.829465 1.2503252,1.416854 1.1793816,-0.417022 2.1776139,-1.463641 2.6530819,-2.903381 z"
         id="path450"
         inkscape:connector-curvature="0"
         style="fill:#eeeeee" />
      <path
         d="m 3.5654754,33.263516 c -0.2884063,0.139348 -0.5160068,0.432279 -0.656621,0.92355 -0.6697112,2.341929 -0.5459877,4.035438 0.033358,5.072397 C 3.09465,39.150129 3.25131,39.055528 3.4109259,38.975177 3.537183,38.886186 3.6659737,38.807859 3.7972979,38.739713 3.1153408,37.498312 2.8611376,35.923805 3.2065499,34.3732 3.2935369,33.980083 3.4151486,33.609339 3.5654746,33.263516 z"
         id="path457"
         style="fill:#f0a513"
         inkscape:connector-curvature="0" />
      <path
         d="m 9.6346789,48.851958 c 0.7959681,1.053234 2.8688621,0.917445 3.5212611,-0.268012 -0.352592,0.781151 -1.04046,1.31209 -1.830517,1.31209 -0.695891,0 -1.312395,-0.411935 -1.6907441,-1.044078 z"
         id="path459"
         inkscape:connector-curvature="0"
         style="fill:#ffffff" />
    </g>
  </g>
</svg>
