<?xml version="1.0" encoding="UTF-8" standalone="no"?>
<!-- Created with Inkscape (http://www.inkscape.org/) -->

<svg
   xmlns:dc="http://purl.org/dc/elements/1.1/"
   xmlns:cc="http://creativecommons.org/ns#"
   xmlns:rdf="http://www.w3.org/1999/02/22-rdf-syntax-ns#"
   xmlns:svg="http://www.w3.org/2000/svg"
   xmlns="http://www.w3.org/2000/svg"
   xmlns:sodipodi="http://sodipodi.sourceforge.net/DTD/sodipodi-0.dtd"
   xmlns:inkscape="http://www.inkscape.org/namespaces/inkscape"
   width="22"
   height="22"
   id="svg3465"
   version="1.1"
   inkscape:version="0.48.3.1 r9886"
   sodipodi:docname="diodon-panel.svg">
  <defs
     id="defs3467" />
  <sodipodi:namedview
     id="base"
     pagecolor="#ffffff"
     bordercolor="#666666"
     borderopacity="1.0"
     inkscape:pageopacity="0.0"
     inkscape:pageshadow="2"
     inkscape:zoom="33.136364"
     inkscape:cx="5.6886145"
     inkscape:cy="11"
     inkscape:document-units="px"
     inkscape:current-layer="layer1"
     showgrid="true"
     inkscape:window-width="1600"
     inkscape:window-height="876"
     inkscape:window-x="0"
     inkscape:window-y="24"
     inkscape:window-maximized="1">
    <inkscape:grid
       type="xygrid"
       id="grid3491"
       empspacing="5"
       visible="true"
       enabled="true"
       snapvisiblegridlinesonly="true" />
  </sodipodi:namedview>
  <metadata
     id="metadata3470">
    <rdf:RDF>
      <cc:Work
         rdf:about="">
        <dc:format>image/svg+xml</dc:format>
        <dc:type
           rdf:resource="http://purl.org/dc/dcmitype/StillImage" />
        <dc:title />
      </cc:Work>
    </rdf:RDF>
  </metadata>
  <g
     inkscape:label="Layer 1"
     inkscape:groupmode="layer"
     id="layer1"
     transform="translate(0,-1030.3622)">
    <path
       inkscape:connector-curvature="0"
       d="m 7.1365956,1049.1727 c -1.3034099,1.2933 -3.3577042,1.2267 -4.6438852,-0.048 -1.2811166,-1.2787 -1.3485043,-3.3236 -0.048893,-4.6207 l 10.7239266,-10.6702 c 1.695066,-1.6813 4.362429,-1.5964 6.038495,0.067 1.670493,1.6686 1.755614,4.3227 0.06663,6.0091 l -8.936649,8.892 c -0.197348,0.1968 -0.5173081,0.1968 -0.7138961,0 -0.1976013,-0.1965 -0.1983613,-0.5144 -7.7e-4,-0.7109 l 8.9358871,-8.8929 c 1.286943,-1.2821 1.23501,-3.2813 -0.06612,-4.5864 -1.309995,-1.294 -3.319703,-1.3451 -4.608925,-0.064 l -10.7239271,10.6695 c -0.8950333,0.8942 -0.8615932,2.2833 0.048893,3.1983 0.9211278,0.9077 2.3157377,0.9394 3.2153309,0.049 l 8.9358882,-8.8915 c 0.464616,-0.4618 0.447643,-1.2078 -0.07271,-1.736 -0.529977,-0.5166 -1.279595,-0.5337 -1.744211,-0.07 l -8.0423768,8.002 c -0.1973478,0.1974 -0.5173099,0.1968 -0.7146577,0 -0.1973489,-0.1963 -0.1981089,-0.5151 -7.674e-4,-0.7116 l 8.0438949,-8.0017 c 0.889206,-0.8823 2.29775,-0.7964 3.172771,0.071 0.87375,0.872 0.958873,2.2741 0.07347,3.1586 l -8.9374079,8.8914 z"
       style="fill:#3c3c3c;fill-opacity:1;fill-rule:nonzero;stroke:none"
       id="path108" />
  </g>
</svg>
