<?xml version="1.0" encoding="UTF-8" standalone="no"?>
<!-- Created with Inkscape (http://www.inkscape.org/) -->

<svg
   xmlns:dc="http://purl.org/dc/elements/1.1/"
   xmlns:cc="http://creativecommons.org/ns#"
   xmlns:rdf="http://www.w3.org/1999/02/22-rdf-syntax-ns#"
   xmlns:svg="http://www.w3.org/2000/svg"
   xmlns="http://www.w3.org/2000/svg"
   xmlns:sodipodi="http://sodipodi.sourceforge.net/DTD/sodipodi-0.dtd"
   xmlns:inkscape="http://www.inkscape.org/namespaces/inkscape"
   width="22"
   height="22"
   id="svg3465"
   version="1.1"
   inkscape:version="0.48.3.1 r9886"
   sodipodi:docname="diodon-panel.svg">
  <defs
     id="defs3467" />
  <sodipodi:namedview
     id="base"
     pagecolor="#ffffff"
     bordercolor="#666666"
     borderopacity="1.0"
     inkscape:pageopacity="0.0"
     inkscape:pageshadow="2"
     inkscape:zoom="33.136364"
     inkscape:cx="4.4814815"
     inkscape:cy="11"
     inkscape:document-units="px"
     inkscape:current-layer="layer1"
     showgrid="true"
     inkscape:window-width="1600"
     inkscape:window-height="876"
     inkscape:window-x="0"
     inkscape:window-y="24"
     inkscape:window-maximized="1"
     showguides="true"
     inkscape:guide-bbox="true">
    <inkscape:grid
       type="xygrid"
       id="grid3491"
       empspacing="5"
       visible="true"
       enabled="true"
       snapvisiblegridlinesonly="true" />
  </sodipodi:namedview>
  <metadata
     id="metadata3470">
    <rdf:RDF>
      <cc:Work
         rdf:about="">
        <dc:format>image/svg+xml</dc:format>
        <dc:type
           rdf:resource="http://purl.org/dc/dcmitype/StillImage" />
        <dc:title />
      </cc:Work>
    </rdf:RDF>
  </metadata>
  <g
     inkscape:label="Layer 1"
     inkscape:groupmode="layer"
     id="layer1"
     transform="translate(0,-1030.3622)">
    <path
       inkscape:connector-curvature="0"
       d="m 7.1365954,1049.1727 c -1.3034099,1.2933 -3.357704,1.2267 -4.643885,-0.048 -1.2811166,-1.2786 -1.3485043,-3.3235 -0.048893,-4.6207 l 10.7239266,-10.6701 c 1.695066,-1.6812 4.362429,-1.5964 6.038495,0.067 1.670493,1.6687 1.755614,4.3227 0.06663,6.0091 l -8.936649,8.892 c -0.197348,0.1967 -0.5173082,0.1967 -0.7138962,0 -0.197601,-0.1967 -0.198361,-0.5144 -7.7e-4,-0.711 l 8.9358872,-8.8928 c 1.286943,-1.2821 1.23501,-3.2813 -0.06612,-4.5864 -1.309995,-1.2939 -3.319703,-1.3451 -4.608925,-0.065 l -10.7239271,10.6694 c -0.8950333,0.8943 -0.8615932,2.2834 0.048893,3.1983 0.9211278,0.9076 2.3157375,0.9394 3.2153307,0.049 l 8.9358884,-8.8914 c 0.464616,-0.4618 0.447643,-1.2079 -0.07271,-1.7359 -0.529977,-0.5167 -1.279595,-0.5339 -1.744211,-0.07 l -8.042377,8.0018 c -0.1973478,0.1975 -0.5173097,0.1968 -0.7146575,0 -0.1973489,-0.1963 -0.1981089,-0.515 -7.674e-4,-0.7116 l 8.0438949,-8.0016 c 0.889206,-0.8823 2.29775,-0.7964 3.172771,0.071 0.87375,0.8719 0.958873,2.2739 0.07347,3.1585 l -8.9374081,8.8914 z"
       style="fill:#dfdbd2;fill-opacity:1;fill-rule:nonzero;stroke:none"
       id="path108" />
  </g>
</svg>
